<svg width="96" height="86" viewBox="0 0 96 86" fill="none" xmlns="http://www.w3.org/2000/svg">
<path fill-rule="evenodd" clip-rule="evenodd" d="M88.5104 27.8633C89.1726 27.8633 89.7094 28.4006 89.7094 29.0635V84.7998C89.7094 85.4626 89.1726 86 88.5104 86C87.8481 86 87.3113 85.4626 87.3113 84.7998V29.0635C87.3113 28.4006 87.8481 27.8633 88.5104 27.8633Z" fill="#333333"/>
<path fill-rule="evenodd" clip-rule="evenodd" d="M75.0438 43.8722C75.706 43.8722 76.2429 44.4095 76.2429 45.0724V84.7998C76.2429 85.4626 75.706 86 75.0438 86C74.3816 86 73.8447 85.4626 73.8447 84.7998V45.0724C73.8447 44.4095 74.3816 43.8722 75.0438 43.8722Z" fill="#333333"/>
<path fill-rule="evenodd" clip-rule="evenodd" d="M61.5957 57.2222C62.2579 57.2222 62.7948 57.7595 62.7948 58.4224V84.7998C62.7948 85.4626 62.2579 86 61.5957 86C60.9335 86 60.3966 85.4626 60.3966 84.7998V58.4224C60.3966 57.7595 60.9335 57.2222 61.5957 57.2222Z" fill="#333333"/>
<path fill-rule="evenodd" clip-rule="evenodd" d="M48.1291 46.9927C48.7914 46.9927 49.3282 47.5301 49.3282 48.1929V84.7998C49.3282 85.4626 48.7914 86 48.1291 86C47.4669 86 46.9301 85.4626 46.9301 84.7998V48.1929C46.9301 47.5301 47.4669 46.9927 48.1291 46.9927Z" fill="#333333"/>
<path fill-rule="evenodd" clip-rule="evenodd" d="M34.681 38.8498C35.3432 38.8498 35.8801 39.3871 35.8801 40.05V84.7998C35.8801 85.4626 35.3432 86 34.681 86C34.0188 86 33.4819 85.4626 33.4819 84.7998V40.05C33.4819 39.3871 34.0188 38.8498 34.681 38.8498Z" fill="#333333"/>
<path fill-rule="evenodd" clip-rule="evenodd" d="M21.2145 55.7635C21.8767 55.7635 22.4135 56.3008 22.4135 56.9637V84.7998C22.4135 85.4626 21.8767 86 21.2145 86C20.5522 86 20.0154 85.4626 20.0154 84.7998V56.9637C20.0154 56.3008 20.5522 55.7635 21.2145 55.7635Z" fill="#333333"/>
<path fill-rule="evenodd" clip-rule="evenodd" d="M7.76633 64.9958C8.42857 64.9958 8.96541 65.5332 8.96541 66.1961V84.7998C8.96541 85.4626 8.42857 86 7.76633 86C7.1041 86 6.56726 85.4626 6.56726 84.7998V66.1961C6.56726 65.5332 7.1041 64.9958 7.76633 64.9958Z" fill="#333333"/>
<path d="M7.48962 32.8857C10.2936 32.8857 12.5811 35.1753 12.5811 37.9819C12.5811 40.7886 10.2936 43.0782 7.48962 43.0782C4.68563 43.0782 2.39816 40.8071 2.39816 38.0004C2.39816 35.1938 4.68563 32.8857 7.48962 32.8857ZM7.48962 30.4853C3.35742 30.4853 0 33.8458 0 38.0004C0 42.155 3.35742 45.4971 7.48962 45.4971C11.6218 45.4971 14.9792 42.1365 14.9792 38.0004C14.9792 33.8643 11.6403 30.4853 7.48962 30.4853Z" fill="#333333"/>
<path d="M34.681 14.8826C37.485 14.8826 39.7725 17.1722 39.7725 19.9788C39.7725 22.7855 37.485 25.0751 34.681 25.0751C31.877 25.0751 29.5895 22.7855 29.5895 19.9788C29.5895 17.1722 31.877 14.8826 34.681 14.8826ZM34.681 12.4822C30.5488 12.4822 27.1914 15.8427 27.1914 19.9788C27.1914 24.1149 30.5488 27.4755 34.681 27.4755C38.8132 27.4755 42.1706 24.1149 42.1706 19.9788C42.1706 15.8427 38.8132 12.4822 34.681 12.4822Z" fill="#333333"/>
<path d="M60.452 21.9546C63.256 21.9546 65.5434 24.2442 65.5434 27.0508C65.5434 29.8575 63.256 32.1471 60.452 32.1471C57.648 32.1471 55.3605 29.8575 55.3605 27.0508C55.3605 24.2442 57.648 21.9546 60.452 21.9546ZM60.452 19.5541C56.3198 19.5541 52.9623 22.9147 52.9623 27.0508C52.9623 31.1869 56.3198 34.5475 60.452 34.5475C64.5842 34.5475 67.9416 31.1869 67.9416 27.0508C67.9416 22.9147 64.5842 19.5541 60.452 19.5541Z" fill="#333333"/>
<path d="M88.5104 2.40041C91.3144 2.40041 93.6018 4.69004 93.6018 7.49668C93.6018 10.3033 91.3144 12.5929 88.5104 12.5929C85.7064 12.5929 83.4189 10.3033 83.4189 7.49668C83.4189 4.69004 85.6879 2.40041 88.5104 2.40041ZM88.5104 0C84.3782 0 81.0208 3.36058 81.0208 7.49668C81.0208 11.6328 84.3782 14.9934 88.5104 14.9934C92.6426 14.9934 96 11.6328 96 7.49668C96 3.36058 92.6426 0 88.5104 0Z" fill="#333333"/>
<path fill-rule="evenodd" clip-rule="evenodd" d="M29.3109 23.2593C29.6811 23.8089 29.5361 24.5549 28.987 24.9254L14.3767 34.7856C13.8276 35.1562 13.0824 35.011 12.7122 34.4614C12.342 33.9118 12.487 33.1659 13.036 32.7953L27.6463 22.9351C28.1954 22.5646 28.9407 22.7097 29.3109 23.2593Z" fill="#333333"/>
<path fill-rule="evenodd" clip-rule="evenodd" d="M40.8032 21.4652C40.9612 20.8215 41.6105 20.4278 42.2537 20.5859L53.6726 23.3925C54.3157 23.5506 54.709 24.2006 54.5511 24.8443C54.3932 25.488 53.7438 25.8817 53.1007 25.7237L41.6818 22.917C41.0386 22.759 40.6453 22.109 40.8032 21.4652Z" fill="#333333"/>
<path fill-rule="evenodd" clip-rule="evenodd" d="M83.2673 10.9773C83.6392 11.5257 83.4965 12.2721 82.9485 12.6443L67.0469 23.4462C66.4989 23.8184 65.7533 23.6756 65.3814 23.1271C65.0095 22.5786 65.1523 21.8322 65.7002 21.46L81.6018 10.6581C82.1498 10.2859 82.8955 10.4288 83.2673 10.9773Z" fill="#333333"/>
</svg>
