<svg width="58" height="51" viewBox="0 0 58 51" fill="none" xmlns="http://www.w3.org/2000/svg">
<path fill-rule="evenodd" clip-rule="evenodd" d="M58 45.7657V51H0V45.7657H3.30653V41.9436H0V36.7093H58V41.9436H54.6432V45.7657H58ZM56.7035 40.6598V38.0031H1.29648V40.6598H3.30653H9.8191H25.7286H32.2412H48.1407H54.6533H56.7035ZM4.59297 41.9535V45.7756H8.51256V41.9535H4.59297ZM9.80905 41.9535V45.7756H25.7186V41.9535H9.80905ZM27.0151 41.9535V45.7756H30.9347V41.9535H27.0151ZM32.2312 41.9535V45.7756H48.1407V41.9535H32.2312ZM49.4372 41.9535V45.7756H53.3568V41.9535H49.4372ZM48.1407 47.0594H32.2312H25.7186H9.80905H3.30653H1.29648V49.7161H56.7035V47.0594H54.6432H48.1407ZM43.5176 25.1445H45.0955V19.4558C45.0955 17.4905 46.7035 15.9005 48.6734 15.9005C50.6432 15.9005 52.2513 17.5004 52.2513 19.4558V25.1445H53.8794V35.4452H43.5176V25.1445ZM50.9648 19.4558C50.9648 18.2016 49.9397 17.1844 48.6834 17.1844C47.4271 17.1844 46.402 18.2016 46.402 19.4558V25.0358H50.9648V19.4558ZM44.8141 34.1613H52.593V26.4283H44.8141V34.1613ZM31.9397 35.3464C27.7387 35.3464 24.1608 32.7194 22.7538 29.0258C21.3467 32.7095 17.7588 35.3464 13.5678 35.3464C8.1407 35.3464 3.72864 30.9615 3.72864 25.5691C3.72864 20.1768 8.1407 15.7918 13.5678 15.7918C14.1608 15.7918 14.7337 15.8511 15.2965 15.9597C13.9095 14.2709 13.0653 12.1179 13.0653 9.7773C13.0653 4.38497 17.4774 0 22.9045 0C28.3317 0 32.7437 4.38497 32.7437 9.7773C32.7437 12.0982 31.9196 14.2314 30.5628 15.9103C30.995 15.8313 31.4573 15.7918 31.9397 15.7918C37.3668 15.7918 41.7789 20.1768 41.7789 25.5691C41.7789 30.9615 37.3568 35.3464 31.9397 35.3464ZM24.3116 19.4361C23.8492 19.5052 23.3769 19.5447 22.8945 19.5447C22.2915 19.5447 21.7085 19.4855 21.1357 19.3768C21.809 20.1867 22.3618 21.1052 22.7437 22.1026C23.1156 21.1348 23.6583 20.2361 24.3116 19.4361ZM5.01508 25.5691C5.01508 30.2504 8.84422 34.0625 13.5578 34.0625C18.2714 34.0625 22.1005 30.2504 22.1005 25.5691C22.1005 20.8879 18.2714 17.0757 13.5578 17.0757C8.84422 17.0757 5.01508 20.8879 5.01508 25.5691ZM31.4372 9.76743C31.4372 5.08617 27.608 1.27401 22.8945 1.27401C18.1809 1.27401 14.3518 5.08617 14.3518 9.76743C14.3518 14.4487 18.1809 18.2608 22.8945 18.2608C24.1608 18.2608 25.3668 17.9744 26.4523 17.4806C26.8643 17.2041 27.3065 16.9572 27.7688 16.7399C29.9799 15.1993 31.4372 12.6512 31.4372 9.76743ZM31.9397 17.0757C30.7035 17.0757 29.5276 17.3424 28.4623 17.8164C28.0201 18.1226 27.5377 18.3892 27.0452 18.6164C24.8442 20.157 23.397 22.6952 23.397 25.5691C23.397 30.2504 27.2261 34.0625 31.9397 34.0625C36.6533 34.0625 40.4824 30.2504 40.4824 25.5691C40.4824 20.8879 36.6432 17.0757 31.9397 17.0757Z" fill="#333333"/>
</svg>
