<svg width="103" height="90" viewBox="0 0 103 90" fill="none" xmlns="http://www.w3.org/2000/svg">
<path fill-rule="evenodd" clip-rule="evenodd" d="M103 80.763V90H0V80.763H5.87195V74.0182H0V64.7812H103V74.0182H97.0388V80.763H103ZM100.698 71.7525V67.0643H2.30237V71.7525H5.87195H17.4374H45.6905H57.2559H85.4913H97.0567H100.698ZM8.15647 74.0356V80.7804H15.1171V74.0356H8.15647ZM17.4195 74.0356V80.7804H45.6727V74.0356H17.4195ZM47.975 74.0356V80.7804H54.9357V74.0356H47.975ZM57.2381 74.0356V80.7804H85.4913V74.0356H57.2381ZM87.7936 74.0356V80.7804H94.7543V74.0356H87.7936ZM85.4913 83.0461H57.2381H45.6727H17.4195H5.87195H2.30237V87.7343H100.698V83.0461H97.0388H85.4913ZM77.2812 44.3726H80.0834V34.3338C80.0834 30.8656 82.939 28.0596 86.4372 28.0596C89.9354 28.0596 92.791 30.883 92.791 34.3338V44.3726H95.6824V62.5504H77.2812V44.3726ZM90.5065 34.3338C90.5065 32.1204 88.686 30.3253 86.455 30.3253C84.2241 30.3253 82.4036 32.1204 82.4036 34.3338V44.1809H90.5065V34.3338ZM79.5836 60.2847H93.3979V46.6383H79.5836V60.2847ZM56.7205 62.3761C49.2601 62.3761 42.9063 57.7401 40.4076 51.2219C37.9089 57.7227 31.5372 62.3761 24.0946 62.3761C14.4568 62.3761 6.62156 54.6379 6.62156 45.122C6.62156 35.6061 14.4568 27.8679 24.0946 27.8679C25.1476 27.8679 26.165 27.9725 27.1644 28.1642C24.7014 25.184 23.2022 21.3846 23.2022 17.2541C23.2022 7.73819 31.0374 0 40.6753 0C50.3131 0 58.1483 7.73819 58.1483 17.2541C58.1483 21.3497 56.6848 25.1143 54.2753 28.0771C55.0428 27.9376 55.8638 27.8679 56.7205 27.8679C66.3583 27.8679 74.1936 35.6061 74.1936 45.122C74.1936 54.6379 66.3405 62.3761 56.7205 62.3761ZM43.174 34.299C42.353 34.421 41.5141 34.4907 40.6574 34.4907C39.5866 34.4907 38.5514 34.3861 37.534 34.1944C38.7299 35.6235 39.7115 37.2444 40.3897 39.0046C41.0501 37.2967 42.0139 35.7107 43.174 34.299ZM8.90608 45.122C8.90608 53.383 15.7061 60.1104 24.0768 60.1104C32.4474 60.1104 39.2474 53.383 39.2474 45.122C39.2474 36.861 32.4474 30.1336 24.0768 30.1336C15.7061 30.1336 8.90608 36.861 8.90608 45.122ZM55.8281 17.2366C55.8281 8.9756 49.0281 2.24826 40.6574 2.24826C32.2868 2.24826 25.4867 8.9756 25.4867 17.2366C25.4867 25.4977 32.2868 32.225 40.6574 32.225C42.9063 32.225 45.048 31.7196 46.9756 30.8482C47.7073 30.3602 48.4926 29.9245 49.3136 29.5411C53.2402 26.8222 55.8281 22.3257 55.8281 17.2366ZM56.7205 30.1336C54.5252 30.1336 52.437 30.6042 50.5451 31.4407C49.7598 31.981 48.9031 32.4516 48.0286 32.8524C44.1199 35.5713 41.5498 40.0503 41.5498 45.122C41.5498 53.383 48.3499 60.1104 56.7205 60.1104C65.0911 60.1104 71.8912 53.383 71.8912 45.122C71.8912 36.861 65.0733 30.1336 56.7205 30.1336Z" fill="#333333"/>
</svg>
