<svg width="95" height="94" viewBox="0 0 95 94" fill="none" xmlns="http://www.w3.org/2000/svg">
<path fill-rule="evenodd" clip-rule="evenodd" d="M94.5876 67.1115C91.5898 69.1955 83.8018 75.6669 83.8018 80.4774V81.4959H60.2H59.9779H36.392V80.4774C36.392 75.6669 28.604 69.1955 25.6062 67.1115L25.1621 66.7981V39.1262C25.1621 38.4211 25.3524 37.7316 25.7014 37.1362L27.8902 33.4069C28.0647 33.1092 28.1599 32.7801 28.1599 32.4354V20.8715C28.1599 19.3516 28.8895 17.8786 30.1267 16.9542L44.5923 6.12669H52.0155C52.7927 2.63244 55.9333 0 59.6924 0C63.4516 0 66.5922 2.63244 67.3535 6.12669H75.5697L90.0512 16.9542C91.2884 17.8786 92.0181 19.3359 92.0181 20.8715V32.4354C92.0181 32.7801 92.1132 33.1092 92.2718 33.4069L94.4607 37.1362C94.8097 37.7473 95 38.4367 95 39.1262V66.7981L94.5876 67.1115ZM59.6924 2.05268C56.5043 2.05268 53.903 4.62244 53.903 7.78763C53.903 10.9528 56.5043 13.5226 59.6924 13.5226C62.8806 13.5226 65.4819 10.9528 65.4819 7.78763C65.4819 4.62244 62.8806 2.05268 59.6924 2.05268ZM92.9539 39.1262C92.9539 38.7815 92.8587 38.4524 92.7001 38.1547L90.5112 34.4254C90.1623 33.8143 89.9719 33.1249 89.9719 32.4354V20.8715C89.9719 19.9783 89.5437 19.1322 88.8299 18.5994L74.9036 8.17936H67.528C67.3218 12.2847 63.9116 15.5596 59.7083 15.5596C55.5209 15.5596 52.1107 12.2847 51.8886 8.17936H45.3061L31.3798 18.5994C30.666 19.1322 30.2377 19.994 30.2377 20.8715V32.4354C30.2377 33.1405 30.0474 33.83 29.6984 34.4254L27.5096 38.1547C27.3351 38.4524 27.2399 38.7815 27.2399 39.1262V65.7483C29.2702 67.2369 37.4864 73.5516 38.3747 79.4432H59.9938H60.2159H81.835C82.7232 73.5359 90.9395 67.2369 92.9697 65.7483V39.1262H92.9539ZM87.101 39.847L60.3586 36.149C52.9355 37.1519 34.0445 39.706 33.3783 39.8313C33.2673 39.8626 33.1721 39.8783 33.0611 39.8783C32.6487 39.8783 32.268 39.5963 32.1253 39.1575C31.9508 38.6248 32.2997 38.0293 32.839 37.8413C32.9659 37.7943 33.1245 37.7473 60.2159 34.0807L60.3586 34.065L60.5014 34.0807L87.3865 37.7943C87.9575 37.8726 88.3541 38.3897 88.2748 38.9538C88.1796 39.5336 87.6562 39.9253 87.101 39.847ZM82.7074 30.1477H64.7047C63.975 30.1477 63.3881 29.5679 63.3881 28.8471V19.6179C63.3881 18.8972 63.975 18.3174 64.7047 18.3174H82.7074C83.437 18.3174 84.0239 18.8972 84.0239 19.6179V28.8471C84.0239 29.5523 83.437 30.1477 82.7074 30.1477ZM81.946 20.3701H65.4501V28.095H81.946V20.3701ZM55.7112 30.1477H37.6926C36.963 30.1477 36.3761 29.5679 36.3761 28.8471V19.6179C36.3761 18.8972 36.963 18.3174 37.6926 18.3174H55.6954C56.425 18.3174 57.0118 18.8972 57.0118 19.6179V28.8471C57.0118 29.5523 56.425 30.1477 55.7112 30.1477ZM54.9499 20.3701H38.454V28.095H54.9499V20.3701ZM39.3739 53.1032C39.9449 53.1032 40.4049 53.5576 40.4049 54.1217V61.1415C42.1814 62.254 47.7329 66.2027 47.7329 72.063C47.7329 72.6271 47.2729 73.0815 46.7019 73.0815C46.1309 73.0815 45.6709 72.6271 45.6709 72.063C45.6709 66.4377 38.9457 62.6458 38.8664 62.6144L38.3429 62.3167V54.1217C38.3429 53.5733 38.8029 53.1032 39.3739 53.1032ZM57.8208 52.21H61.9289C63.8799 52.21 65.466 53.777 65.466 55.72V69.6029C65.466 71.5303 63.8799 73.1129 61.9289 73.1129H57.8208C55.8698 73.1129 54.2837 71.5459 54.2837 69.6029V55.72C54.2837 53.777 55.8698 52.21 57.8208 52.21ZM56.3457 69.6029C56.3457 70.4021 57.0119 71.0602 57.8208 71.0602H61.9289C62.7378 71.0602 63.404 70.4021 63.404 69.6029V55.72C63.404 54.9208 62.7378 54.2627 61.9289 54.2627H57.8208C57.0119 54.2627 56.3457 54.9208 56.3457 55.72V69.6029ZM79.6144 61.1415V54.1217C79.6144 53.5576 80.0744 53.1032 80.6454 53.1032C81.2164 53.1032 81.6764 53.5576 81.6764 54.1217V62.3167L81.1371 62.6144C81.0737 62.6458 74.3325 66.4377 74.3325 72.063C74.3325 72.6271 73.8726 73.0815 73.3016 73.0815C72.7305 73.0815 72.2706 72.6271 72.2706 72.063C72.2864 66.2027 77.8379 62.2697 79.6144 61.1415ZM23.2904 77.4689C23.227 77.4689 23.1635 77.4689 23.0842 77.4532L14.1701 75.714C12.9805 75.4789 12.124 74.4447 12.124 73.2539V31.1349C12.124 30.226 12.5205 29.3486 13.2184 28.7531L21.1015 21.9683C21.5298 21.5923 22.1801 21.6393 22.5608 22.0623C22.9415 22.4854 22.8939 23.1435 22.4656 23.5039L14.5825 30.2887C14.3446 30.4924 14.2018 30.8058 14.2018 31.1192V73.2382C14.2018 73.4576 14.3604 73.6456 14.5666 73.6926L23.4808 75.4319C24.0359 75.5416 24.4007 76.0743 24.2897 76.6384C24.2104 77.1399 23.7821 77.4689 23.2904 77.4689ZM6.16007 75.2439H1.03682C0.465811 75.2439 0.00582942 74.7895 0.00582942 74.2254C0.00582942 73.6613 0.465811 73.2069 1.03682 73.2069H6.16007L6.25524 34.253L1.40164 36.0707C0.862347 36.2744 0.275474 36.008 0.0692752 35.4752C-0.136924 34.9425 0.132721 34.3471 0.67201 34.159L5.79526 32.2317C6.36627 32.0123 7.01659 32.0907 7.52415 32.4354C8.03172 32.7801 8.33309 33.3442 8.33309 33.9553V73.0972C8.33309 74.288 7.34968 75.2439 6.16007 75.2439ZM1.03682 79.4432L14.8839 79.4589L30.5074 82.7338C31.0625 82.8435 31.4273 83.3919 31.3005 83.9403C31.1894 84.4261 30.7612 84.7551 30.2853 84.7551C30.2219 84.7551 30.1426 84.7551 30.0633 84.7395L14.5508 81.4802H1.03682C0.465811 81.4959 0.00582942 81.0415 0.00582942 80.4774C0.00582942 79.9133 0.465811 79.4432 1.03682 79.4432ZM40.5001 84.8961C40.7697 84.3947 41.3883 84.2067 41.8959 84.4574C42.4035 84.7238 42.5938 85.3349 42.34 85.8363L38.3429 93.4516C38.1526 93.7963 37.8036 94 37.423 94C37.2644 94 37.1057 93.9687 36.9471 93.8903C36.4396 93.6239 36.2492 93.0128 36.503 92.5114L40.5001 84.8961ZM46.7019 86.6824H74.9194C75.4904 86.6824 75.9504 87.1369 75.9504 87.701C75.9504 88.265 75.4904 88.7195 74.9194 88.7195H46.7019C46.1309 88.7195 45.6709 88.265 45.6709 87.701C45.6709 87.1525 46.1309 86.6824 46.7019 86.6824ZM80.804 84.4574C81.3116 84.191 81.9302 84.3791 82.2157 84.8648L86.4031 92.4801C86.6727 92.9815 86.4824 93.5926 85.9907 93.8746C85.8321 93.953 85.6576 94 85.499 94C85.1342 94 84.7694 93.812 84.5949 93.4672L80.4075 85.852C80.122 85.3506 80.2964 84.7395 80.804 84.4574Z" fill="#333333"/>
</svg>
