<svg width="60" height="60" viewBox="0 0 60 60" fill="none" xmlns="http://www.w3.org/2000/svg">
<path fill-rule="evenodd" clip-rule="evenodd" d="M59.6337 42.83C57.7437 44.16 52.8337 48.29 52.8337 51.36V52.01H37.9537H37.8137H22.9437V51.36C22.9437 48.29 18.0337 44.16 16.1437 42.83L15.8637 42.63V24.97C15.8637 24.52 15.9837 24.08 16.2037 23.7L17.5837 21.32C17.6937 21.13 17.7537 20.92 17.7537 20.7V13.32C17.7537 12.35 18.2137 11.41 18.9937 10.82L28.1137 3.91H32.7937C33.2837 1.68 35.2637 0 37.6337 0C40.0037 0 41.9837 1.68 42.4637 3.91H47.6437L56.7737 10.82C57.5537 11.41 58.0137 12.34 58.0137 13.32V20.7C58.0137 20.92 58.0737 21.13 58.1737 21.32L59.5537 23.7C59.7737 24.09 59.8937 24.53 59.8937 24.97V42.63L59.6337 42.83ZM37.6337 1.31C35.6237 1.31 33.9837 2.95 33.9837 4.97C33.9837 6.99 35.6237 8.63 37.6337 8.63C39.6437 8.63 41.2837 6.99 41.2837 4.97C41.2837 2.95 39.6437 1.31 37.6337 1.31ZM58.6037 24.97C58.6037 24.75 58.5437 24.54 58.4437 24.35L57.0637 21.97C56.8437 21.58 56.7237 21.14 56.7237 20.7V13.32C56.7237 12.75 56.4537 12.21 56.0037 11.87L47.2237 5.22H42.5737C42.4437 7.84 40.2937 9.93 37.6437 9.93C35.0037 9.93 32.8537 7.84 32.7137 5.22H28.5637L19.7837 11.87C19.3337 12.21 19.0637 12.76 19.0637 13.32V20.7C19.0637 21.15 18.9437 21.59 18.7237 21.97L17.3437 24.35C17.2337 24.54 17.1737 24.75 17.1737 24.97V41.96C18.4537 42.91 23.6337 46.94 24.1937 50.7H37.8237H37.9637H51.5937C52.1537 46.93 57.3337 42.91 58.6137 41.96V24.97H58.6037ZM54.9137 25.43L38.0537 23.07C33.3737 23.71 21.4637 25.34 21.0437 25.42C20.9737 25.44 20.9137 25.45 20.8437 25.45C20.5837 25.45 20.3437 25.27 20.2537 24.99C20.1437 24.65 20.3637 24.27 20.7037 24.15C20.7837 24.12 20.8837 24.09 37.9637 21.75L38.0537 21.74L38.1437 21.75L55.0937 24.12C55.4537 24.17 55.7037 24.5 55.6537 24.86C55.5937 25.23 55.2637 25.48 54.9137 25.43ZM52.1437 19.24H40.7937C40.3337 19.24 39.9637 18.87 39.9637 18.41V12.52C39.9637 12.06 40.3337 11.69 40.7937 11.69H52.1437C52.6037 11.69 52.9737 12.06 52.9737 12.52V18.41C52.9737 18.86 52.6037 19.24 52.1437 19.24ZM51.6637 13H41.2637V17.93H51.6637V13ZM35.1237 19.24H23.7637C23.3037 19.24 22.9337 18.87 22.9337 18.41V12.52C22.9337 12.06 23.3037 11.69 23.7637 11.69H35.1137C35.5737 11.69 35.9437 12.06 35.9437 12.52V18.41C35.9437 18.86 35.5737 19.24 35.1237 19.24ZM34.6437 13H24.2437V17.93H34.6437V13ZM24.8237 33.89C25.1837 33.89 25.4737 34.18 25.4737 34.54V39.02C26.5937 39.73 30.0937 42.25 30.0937 45.99C30.0937 46.35 29.8037 46.64 29.4437 46.64C29.0837 46.64 28.7937 46.35 28.7937 45.99C28.7937 42.4 24.5537 39.98 24.5037 39.96L24.1737 39.77V34.54C24.1737 34.19 24.4637 33.89 24.8237 33.89ZM36.4537 33.32H39.0437C40.2737 33.32 41.2737 34.32 41.2737 35.56V44.42C41.2737 45.65 40.2737 46.66 39.0437 46.66H36.4537C35.2237 46.66 34.2237 45.66 34.2237 44.42V35.56C34.2237 34.32 35.2237 33.32 36.4537 33.32ZM35.5237 44.42C35.5237 44.93 35.9437 45.35 36.4537 45.35H39.0437C39.5537 45.35 39.9737 44.93 39.9737 44.42V35.56C39.9737 35.05 39.5537 34.63 39.0437 34.63H36.4537C35.9437 34.63 35.5237 35.05 35.5237 35.56V44.42ZM50.1937 39.02V34.54C50.1937 34.18 50.4837 33.89 50.8437 33.89C51.2037 33.89 51.4937 34.18 51.4937 34.54V39.77L51.1537 39.96C51.1137 39.98 46.8637 42.4 46.8637 45.99C46.8637 46.35 46.5737 46.64 46.2137 46.64C45.8537 46.64 45.5637 46.35 45.5637 45.99C45.5737 42.25 49.0737 39.74 50.1937 39.02ZM14.6837 49.44C14.6437 49.44 14.6037 49.44 14.5537 49.43L8.93368 48.32C8.18368 48.17 7.64367 47.51 7.64367 46.75V19.87C7.64367 19.29 7.89368 18.73 8.33368 18.35L13.3037 14.02C13.5737 13.78 13.9837 13.81 14.2237 14.08C14.4637 14.35 14.4337 14.77 14.1637 15L9.19368 19.33C9.04368 19.46 8.95368 19.66 8.95368 19.86V46.74C8.95368 46.88 9.05368 47 9.18368 47.03L14.8037 48.14C15.1537 48.21 15.3837 48.55 15.3137 48.91C15.2637 49.23 14.9937 49.44 14.6837 49.44ZM3.88368 48.02H0.653675C0.293675 48.02 0.00367521 47.73 0.00367521 47.37C0.00367521 47.01 0.293675 46.72 0.653675 46.72H3.88368L3.94368 21.86L0.883675 23.02C0.543675 23.15 0.173675 22.98 0.0436752 22.64C-0.0863248 22.3 0.0836752 21.92 0.423675 21.8L3.65368 20.57C4.01368 20.43 4.42367 20.48 4.74367 20.7C5.06367 20.92 5.25367 21.28 5.25367 21.67V46.65C5.25367 47.41 4.63368 48.02 3.88368 48.02ZM0.653675 50.7L9.38368 50.71L19.2337 52.8C19.5837 52.87 19.8137 53.22 19.7337 53.57C19.6637 53.88 19.3937 54.09 19.0937 54.09C19.0537 54.09 19.0037 54.09 18.9537 54.08L9.17368 52H0.653675C0.293675 52.01 0.00367521 51.72 0.00367521 51.36C0.00367521 51 0.293675 50.7 0.653675 50.7ZM25.5337 54.18C25.7037 53.86 26.0937 53.74 26.4137 53.9C26.7337 54.07 26.8537 54.46 26.6937 54.78L24.1737 59.64C24.0537 59.86 23.8337 59.99 23.5937 59.99C23.4937 59.99 23.3937 59.97 23.2937 59.92C22.9737 59.75 22.8537 59.36 23.0137 59.04L25.5337 54.18ZM29.4437 55.32H47.2337C47.5937 55.32 47.8837 55.61 47.8837 55.97C47.8837 56.33 47.5937 56.62 47.2337 56.62H29.4437C29.0837 56.62 28.7937 56.33 28.7937 55.97C28.7937 55.62 29.0837 55.32 29.4437 55.32ZM50.9437 53.9C51.2637 53.73 51.6537 53.85 51.8337 54.16L54.4737 59.02C54.6437 59.34 54.5237 59.73 54.2137 59.91C54.1137 59.96 54.0037 59.99 53.9037 59.99C53.6737 59.99 53.4437 59.87 53.3337 59.65L50.6937 54.79C50.5137 54.47 50.6237 54.08 50.9437 53.9Z" fill="#333333"/>
</svg>
