<svg width="52" height="52" viewBox="0 0 52 52" fill="none" xmlns="http://www.w3.org/2000/svg">
<path fill-rule="evenodd" clip-rule="evenodd" d="M51.8648 32.52C51.2548 34.95 50.2948 37.29 49.0248 39.47C47.7548 41.65 46.2048 43.64 44.4048 45.38C44.2748 45.5 44.1147 45.56 43.9448 45.56C43.7748 45.56 43.6048 45.49 43.4748 45.36C43.2248 45.1 43.2248 44.69 43.4848 44.44C45.1948 42.79 46.6748 40.89 47.8848 38.81C49.0948 36.73 50.0048 34.5 50.5848 32.19C50.6748 31.84 51.0248 31.63 51.3848 31.72C51.7448 31.82 51.9548 32.17 51.8648 32.52ZM48.6548 17C48.5848 17 48.5148 16.99 48.4348 16.96C48.0948 16.84 47.9148 16.47 48.0348 16.13C50.0948 10.26 49.8148 5.67 47.2648 3.22C47.0048 2.97 47.0048 2.56 47.2548 2.3C47.5048 2.04 47.9248 2.03 48.1848 2.28C51.1248 5.11 51.5148 10.18 49.2848 16.56C49.1848 16.83 48.9248 17 48.6548 17ZM44.4148 1.62C44.3648 1.62 44.3048 1.61 44.2548 1.6C43.6048 1.43 42.8848 1.34 42.1348 1.31C41.6748 1.29 41.1748 1.31 40.6748 1.34C40.3148 1.36 39.9948 1.1 39.9748 0.74C39.9448 0.38 40.2148 0.07 40.5848 0.04C41.1348 0 41.6748 -0.01 42.1848 0.01C43.0348 0.04 43.8448 0.15 44.5848 0.34C44.9348 0.43 45.1448 0.78 45.0548 1.13C44.9748 1.43 44.7148 1.62 44.4148 1.62ZM37.8948 1.78C36.9248 2 35.9048 2.31 34.8748 2.69C34.8048 2.72 34.7248 2.73 34.6548 2.73C34.3848 2.73 34.1348 2.57 34.0348 2.3C33.9148 1.96 34.0848 1.59 34.4248 1.46C35.5048 1.06 36.5748 0.75 37.5948 0.51C37.9448 0.43 38.2948 0.65 38.3848 1C38.4648 1.35 38.2448 1.7 37.8948 1.78ZM44.2148 25.78C44.5748 25.78 44.8748 26.07 44.8748 26.43C44.8748 26.79 44.5848 27.08 44.2148 27.08H40.6148C40.2548 27.08 39.9548 26.79 39.9548 26.43C39.9548 26.07 40.2448 25.78 40.6148 25.78H44.2148ZM36.4048 16.76C36.2348 16.76 36.0648 16.7 35.9448 16.57C35.6848 16.32 35.6848 15.9 35.9448 15.65L38.4848 13.12C38.7448 12.87 39.1548 12.87 39.4148 13.12C39.6748 13.37 39.6748 13.79 39.4148 14.04L36.8748 16.57C36.7448 16.7 36.5748 16.76 36.4048 16.76ZM38.8148 39.88C38.6448 39.88 38.4748 39.82 38.3548 39.69L35.8148 37.16C35.5548 36.91 35.5548 36.49 35.8148 36.24C36.0748 35.99 36.4848 35.99 36.7448 36.24L39.2848 38.77C39.5448 39.02 39.5448 39.44 39.2848 39.69C39.1448 39.82 38.9748 39.88 38.8148 39.88ZM48.1248 26.27C48.1248 34.72 43.4048 42.32 35.8048 46.1C35.7148 46.15 35.6147 46.17 35.5148 46.17C35.2747 46.17 35.0448 46.04 34.9248 45.81C34.7648 45.49 34.8948 45.1 35.2148 44.94C42.3648 41.38 46.8048 34.23 46.8048 26.28C46.8048 14.78 37.4048 5.43 25.8548 5.43C22.3748 5.43 18.9348 6.29 15.9048 7.93C15.5848 8.1 15.1848 7.98 15.0148 7.67C14.8448 7.35 14.9648 6.96 15.2748 6.79C18.5048 5.05 22.1548 4.13 25.8548 4.13C38.1348 4.11 48.1248 14.05 48.1248 26.27ZM14.7448 3.59C13.5748 4.18 12.4448 4.87 11.3748 5.63C11.2548 5.71 11.1248 5.75 10.9948 5.75C10.7948 5.75 10.5848 5.66 10.4648 5.48C10.2548 5.19 10.3248 4.78 10.6148 4.57C11.7348 3.77 12.9248 3.05 14.1548 2.43C14.4748 2.27 14.8748 2.4 15.0348 2.72C15.1948 3.03 15.0648 3.42 14.7448 3.59ZM11.3048 9.57C11.5748 9.33 11.9848 9.36 12.2348 9.63C12.4748 9.9 12.4448 10.31 12.1748 10.55C12.0048 10.7 11.5248 11.14 11.4448 11.21C11.3148 11.33 11.1548 11.39 10.9948 11.39C10.8248 11.39 10.6448 11.32 10.5248 11.19C10.2748 10.93 10.2848 10.52 10.5448 10.27C10.6248 10.19 11.1348 9.72 11.3048 9.57ZM4.09475 13.65C2.98475 15.57 2.12475 17.61 1.54475 19.72C1.45475 20.01 1.19475 20.2 0.904752 20.2C0.844752 20.2 0.784752 20.19 0.734752 20.18C0.384752 20.08 0.184752 19.73 0.274752 19.38C0.884752 17.16 1.78475 15.02 2.95475 13C4.39475 10.51 6.20475 8.29 8.32475 6.39C8.59475 6.15 9.00475 6.17 9.25475 6.44C9.49475 6.71 9.47475 7.12 9.20475 7.36C7.18475 9.17 5.46475 11.28 4.09475 13.65ZM1.34475 41.63C1.28475 42.61 1.32475 43.52 1.46475 44.35C1.52475 44.71 1.28475 45.04 0.924752 45.1C0.884752 45.11 0.854752 45.11 0.814752 45.11C0.504752 45.11 0.224752 44.88 0.164752 44.56C0.0147522 43.64 -0.0352478 42.62 0.0247522 41.55C0.0447522 41.19 0.364752 40.91 0.714752 40.94C1.08475 40.97 1.35475 41.27 1.34475 41.63ZM1.27475 38.52C1.22475 38.52 1.16475 38.51 1.11475 38.5C0.764752 38.41 0.544752 38.06 0.634752 37.71C0.864752 36.79 1.15475 35.82 1.50475 34.84C1.62475 34.5 2.00475 34.32 2.34475 34.44C2.68475 34.56 2.86475 34.93 2.74475 35.27C2.40475 36.21 2.12475 37.14 1.90475 38.02C1.83475 38.32 1.57475 38.52 1.27475 38.52ZM7.76475 26.89C7.40475 26.89 7.10475 26.6 7.10475 26.24C7.10475 25.88 7.39475 25.59 7.76475 25.59H11.3648C11.7248 25.59 12.0248 25.88 12.0248 26.24C12.0248 26.6 11.7348 26.89 11.3648 26.89H7.76475ZM17.2448 46C17.1348 46.24 16.8948 46.37 16.6548 46.37C16.5648 46.37 16.4648 46.35 16.3748 46.31C8.61475 42.66 3.60475 34.8 3.60475 26.27C3.60475 21.77 4.95475 17.44 7.50475 13.75C7.70475 13.45 8.11475 13.38 8.41475 13.58C8.71475 13.78 8.78475 14.19 8.58475 14.49C6.18475 17.97 4.91475 22.04 4.91475 26.28C4.91475 34.31 9.63475 41.71 16.9348 45.14C17.2648 45.28 17.3948 45.67 17.2448 46ZM16.0448 36.1C16.3048 36.35 16.3048 36.77 16.0448 37.02L13.5048 39.55C13.3748 39.68 13.2048 39.74 13.0448 39.74C12.8748 39.74 12.7048 39.68 12.5848 39.55C12.3248 39.3 12.3248 38.88 12.5848 38.63L15.1248 36.1C15.3748 35.84 15.7848 35.84 16.0448 36.1ZM13.6348 12.98L16.1748 15.51C16.4348 15.76 16.4348 16.18 16.1748 16.43C16.0448 16.56 15.8748 16.62 15.7148 16.62C15.5448 16.62 15.3748 16.56 15.2548 16.43L12.7148 13.9C12.4548 13.65 12.4548 13.23 12.7148 12.98C12.9648 12.72 13.3848 12.72 13.6348 12.98ZM25.9948 8.47C26.3548 8.47 26.6548 8.76 26.6548 9.12V26.6L19.6548 33.53C19.5248 33.66 19.3648 33.72 19.1948 33.72C19.0248 33.72 18.8548 33.66 18.7348 33.53C18.4848 33.28 18.4848 32.86 18.7348 32.61L25.3548 26.06V9.13C25.3348 8.77 25.6348 8.47 25.9948 8.47ZM1.42475 46.67C1.74475 46.5 2.14475 46.61 2.31475 46.93C2.62475 47.48 3.00475 47.98 3.44475 48.4C8.06475 52.84 19.4548 49.25 30.3048 40.09L26.2448 39.94C25.8848 39.93 25.6048 39.62 25.6148 39.26C25.6248 38.9 25.9448 38.61 26.2948 38.63L31.8048 38.83C32.0348 38.84 32.2548 38.94 32.4048 39.12C32.5548 39.3 32.6248 39.53 32.5948 39.76L31.8548 45.29C31.8148 45.62 31.5248 45.86 31.2048 45.86C31.1748 45.86 31.1448 45.86 31.1148 45.85C30.7548 45.8 30.5048 45.47 30.5548 45.12L31.0848 41.16C23.1048 47.88 14.9648 51.6 8.99475 51.6C6.34475 51.6 4.12475 50.87 2.52475 49.34C1.99475 48.83 1.53475 48.23 1.16475 47.56C0.994752 47.24 1.11475 46.85 1.42475 46.67ZM36.9548 49.03C38.2948 48.38 39.5748 47.6 40.7748 46.73C41.0748 46.52 41.4748 46.58 41.6948 46.87C41.9048 47.16 41.8448 47.57 41.5548 47.78C40.2948 48.7 38.9448 49.51 37.5348 50.2C37.4448 50.25 37.3448 50.27 37.2448 50.27C37.0048 50.27 36.7748 50.14 36.6548 49.91C36.5048 49.58 36.6348 49.19 36.9548 49.03Z" fill="#333333"/>
</svg>
