<svg width="40" height="40" viewBox="0 0 40 40" fill="none" xmlns="http://www.w3.org/2000/svg">
<path fill-rule="evenodd" clip-rule="evenodd" d="M39.2111 8.88L29.0511 12.86V39.99H39.2111V8.88Z" fill="#FBB91B"/>
<path fill-rule="evenodd" clip-rule="evenodd" d="M27.7211 11.85L36.8911 8.36V4.21L26.4111 8.2V40H27.7211V11.85Z" fill="#FBB91B"/>
<path fill-rule="evenodd" clip-rule="evenodd" d="M19.6411 0C22.6011 0 25.0011 1.01 25.0011 2.27C25.0011 3.52 22.6011 4.54 19.6411 4.54C16.6811 4.54 14.2811 3.53 14.2811 2.27C14.2911 1.01 16.6911 0 19.6411 0Z" fill="#FBB91B"/>
<path fill-rule="evenodd" clip-rule="evenodd" d="M14.3011 39.99V4.21C14.3011 4.99 16.7011 5.61 19.6611 5.61C22.6211 5.61 25.0211 4.98 25.0211 4.21V39.99H14.3011Z" fill="#FBB91B"/>
<path fill-rule="evenodd" clip-rule="evenodd" d="M0.121094 8.88L10.2811 12.86V39.99H0.121094V8.88Z" fill="#FBB91B"/>
<path fill-rule="evenodd" clip-rule="evenodd" d="M11.6111 11.85L2.43109 8.36V4.21L12.9211 8.2V40H11.6111V11.85Z" fill="#FBB91B"/>
</svg>
