<svg width="11" height="14" viewBox="0 0 11 14" fill="none" xmlns="http://www.w3.org/2000/svg">
<path d="M9.84212 11.0225C9.84212 11.0225 8.23212 9.55351 7.90212 9.25773C7.57212 8.96196 7.28212 9.19858 7.28212 9.19858C7.28212 9.19858 6.48212 9.75069 6.22212 9.92815C5.97212 10.1155 5.80212 10.2929 5.37212 9.98731C4.93212 9.69153 4.13212 8.88308 3.56212 7.94646C2.98212 7.00984 2.67212 5.89576 2.58212 5.57041C2.49212 5.2352 2.75212 5.11689 2.75212 5.11689C2.75212 5.11689 3.42212 4.69294 3.75212 4.45632C4.08212 4.2197 4.04212 3.8352 4.02212 3.67745C4.00212 3.5197 3.79212 1.49858 3.75212 1.21266C3.72212 0.916886 3.49212 0.808436 3.49212 0.808436C3.49212 0.808436 2.74212 0.581675 2.58212 0.532379C2.42212 0.483083 2.05212 0.591534 2.05212 0.591534C0.93212 0.916886 0.352121 2.25773 0.232121 2.55351C0.112121 2.84928 -0.107879 3.48027 0.0621205 4.69294C0.232121 5.91548 0.992121 7.72956 2.05212 9.55351C3.11212 11.3774 5.21212 12.6493 5.84212 13.0436C6.47212 13.438 8.03212 13.5267 8.94212 12.9944C9.85212 12.462 9.92212 11.6436 9.99212 11.3873C10.0521 11.131 9.84212 11.0225 9.84212 11.0225Z" fill="#333333"/>
</svg>
