<svg width="11" height="14" viewBox="0 0 11 14" fill="none" xmlns="http://www.w3.org/2000/svg">
<path d="M10.1529 10.6896C10.1529 10.6896 8.54286 9.22056 8.21286 8.92478C7.88286 8.62901 7.59286 8.86563 7.59286 8.86563C7.59286 8.86563 6.79286 9.41774 6.53286 9.59521C6.28286 9.78253 6.11286 9.96 5.68286 9.65436C5.24286 9.35859 4.44286 8.55014 3.87286 7.61352C3.29286 6.6769 2.98286 5.56281 2.89286 5.23746C2.80286 4.90225 3.06286 4.78394 3.06286 4.78394C3.06286 4.78394 3.73286 4.36 4.06286 4.12338C4.39286 3.88676 4.35286 3.50225 4.33286 3.3445C4.31286 3.18676 4.10286 1.16563 4.06286 0.879714C4.03286 0.583939 3.80286 0.475489 3.80286 0.475489C3.80286 0.475489 3.05286 0.248728 2.89286 0.199432C2.73286 0.150137 2.36286 0.258587 2.36286 0.258587C1.24286 0.58394 0.662858 1.92478 0.542858 2.22056C0.422858 2.51633 0.202858 3.14732 0.372858 4.36C0.542858 5.58253 1.30286 7.39662 2.36286 9.22056C3.42286 11.0445 5.52286 12.3163 6.15286 12.7107C6.78286 13.1051 8.34286 13.1938 9.25286 12.6614C10.1629 12.129 10.2329 11.3107 10.3029 11.0544C10.3629 10.798 10.1529 10.6896 10.1529 10.6896Z" fill="#FFB504"/>
</svg>
