<svg width="33" height="33" viewBox="0 0 33 33" fill="none" xmlns="http://www.w3.org/2000/svg">
<g filter="url(#filter0_d)">
<path d="M28.9226 7.34524C28.8631 6.0119 28.6488 5.10714 28.3393 4.30952C28.0179 3.4881 27.5952 2.79167 26.8988 2.09524C26.2024 1.39881 25.506 0.970238 24.6845 0.654762C23.8869 0.345238 22.9821 0.136905 21.6488 0.0714286C20.3214 0.0119048 19.8929 0 16.5 0C13.1071 0 12.6786 0.0119048 11.3452 0.0773809C10.0119 0.136905 9.10714 0.351191 8.30952 0.660714C7.4881 0.97619 6.79167 1.40476 6.09524 2.09524C5.40476 2.79167 4.97619 3.4881 4.65476 4.30952C4.34524 5.10714 4.1369 6.0119 4.07143 7.34524C4.0119 8.67857 4 9.10714 4 12.5C4 15.8929 4.0119 16.3214 4.07738 17.6548C4.1369 18.9881 4.35119 19.8929 4.66071 20.6905C4.98214 21.5119 5.40476 22.2083 6.10119 22.9048C6.79762 23.6012 7.49405 24.0298 8.31548 24.3452C9.1131 24.6548 10.0179 24.8631 11.3512 24.9286C12.6786 24.9881 13.1071 25 16.5 25C19.8929 25 20.3214 24.9881 21.6548 24.9226C22.9881 24.8631 23.8929 24.6488 24.6905 24.3393C25.5119 24.0179 26.2083 23.5952 26.9048 22.8988C27.6012 22.2024 28.0298 21.506 28.3452 20.6845C28.6548 19.8869 28.8631 18.9821 28.9286 17.6488C28.9881 16.3214 29 15.8929 29 12.5C29 9.10714 28.9881 8.67857 28.9226 7.34524ZM26.6726 17.5536C26.619 18.7738 26.4107 19.4345 26.244 19.875C26.0179 20.4583 25.744 20.875 25.3095 21.3095C24.875 21.744 24.4583 22.0179 23.875 22.244C23.4345 22.4167 22.7738 22.619 21.5536 22.6726C20.2381 22.7321 19.8393 22.744 16.5 22.744C13.1607 22.744 12.7679 22.7321 11.4464 22.6726C10.2262 22.619 9.56548 22.4107 9.125 22.244C8.54167 22.0179 8.125 21.744 7.69048 21.3095C7.25595 20.875 6.98214 20.4583 6.75595 19.875C6.58333 19.4345 6.38095 18.7738 6.32738 17.5536C6.26786 16.2381 6.25595 15.8393 6.25595 12.5C6.25595 9.16071 6.26786 8.76786 6.32738 7.44643C6.38095 6.23214 6.58333 5.56548 6.75595 5.125C6.98214 4.54167 7.25595 4.13095 7.69048 3.69048C8.125 3.25595 8.54167 2.98214 9.125 2.75595C9.56548 2.58333 10.2262 2.38095 11.4464 2.32738C12.7619 2.26786 13.1607 2.25595 16.5 2.25595C19.8393 2.25595 20.2321 2.26786 21.5536 2.32738C22.7738 2.38095 23.4345 2.58929 23.875 2.75595C24.4583 2.98214 24.875 3.25595 25.3095 3.69048C25.744 4.125 26.0179 4.54167 26.244 5.125C26.4167 5.56548 26.619 6.22619 26.6726 7.44643C26.7321 8.7619 26.744 9.16071 26.744 12.5C26.75 15.8393 26.7321 16.2321 26.6726 17.5536ZM16.5 6.08333C12.9524 6.08333 10.0833 8.95833 10.0833 12.5C10.0833 16.0476 12.9583 18.9167 16.5 18.9167C20.0476 18.9167 22.9167 16.0417 22.9167 12.5C22.9167 8.95238 20.0476 6.08333 16.5 6.08333ZM16.5 16.6667C14.1964 16.6667 12.3333 14.8036 12.3333 12.5C12.3333 10.1964 14.1964 8.33333 16.5 8.33333C18.8036 8.33333 20.6667 10.1964 20.6667 12.5C20.6667 14.8036 18.8036 16.6667 16.5 16.6667ZM23.1726 4.32738C22.3452 4.32738 21.6726 5 21.6726 5.82738C21.6726 6.65476 22.3452 7.32738 23.1726 7.32738C24 7.32738 24.6726 6.65476 24.6726 5.82738C24.6726 5 24 4.32738 23.1726 4.32738Z" fill="#737373"/>
</g>
<defs>
<filter id="filter0_d" x="0" y="0" width="33" height="33" filterUnits="userSpaceOnUse" color-interpolation-filters="sRGB">
<feFlood flood-opacity="0" result="BackgroundImageFix"/>
<feColorMatrix in="SourceAlpha" type="matrix" values="0 0 0 0 0 0 0 0 0 0 0 0 0 0 0 0 0 0 127 0"/>
<feOffset dy="4"/>
<feGaussianBlur stdDeviation="2"/>
<feColorMatrix type="matrix" values="0 0 0 0 0 0 0 0 0 0 0 0 0 0 0 0 0 0 0.25 0"/>
<feBlend mode="normal" in2="BackgroundImageFix" result="effect1_dropShadow"/>
<feBlend mode="normal" in="SourceGraphic" in2="effect1_dropShadow" result="shape"/>
</filter>
</defs>
</svg>
