<svg width="44" height="42" viewBox="0 0 44 42" fill="none" xmlns="http://www.w3.org/2000/svg">
<path fill-rule="evenodd" clip-rule="evenodd" d="M42.18 32.56C42.21 33.13 42.31 33.75 42.54 34.49C42.72 35.09 42.81 35.72 42.81 36.36V40.47C42.81 41.3 42.13 41.98 41.29 41.98H4.7C2.11 41.98 0 39.88 0 37.29V14.15C0 11.79 1.92 9.88 4.28 9.88H8.43V6.64C8.43 5.93 9.01 5.35 9.72 5.35H29.94C30.65 5.35 31.23 5.93 31.23 6.64V13.74C31.23 14.1 30.94 14.39 30.57 14.39C30.2 14.39 29.91 14.1 29.91 13.74V6.64L9.72 6.66L9.73 9.88H9.74V13.47V13.74C9.74 14.1 9.45 14.39 9.08 14.39C8.72 14.39 8.42 14.1 8.42 13.74V13.47H5.56C5.13 13.47 4.78 13.82 4.78 14.25C4.78 14.68 5.13 15.03 5.56 15.03H41.01C42 15.03 42.81 15.84 42.81 16.83V19.16C42.81 20.53 42.74 22.13 42.24 23.64C42.17 23.84 42.14 24.02 42.14 24.2V25.09C43.21 25.49 43.98 26.51 43.98 27.72V29.94C43.98 31.13 43.23 32.15 42.18 32.56ZM41.49 16.83C41.49 16.56 41.27 16.34 41 16.34H5.56C4.4 16.34 3.47 15.4 3.47 14.25C3.47 13.1 4.41 12.16 5.56 12.16H8.43V11.19H4.28C2.64 11.19 1.31 12.52 1.31 14.15V37.29C1.31 39.16 2.83 40.67 4.7 40.67H41.29C41.4 40.67 41.49 40.58 41.49 40.47V36.36C41.49 35.84 41.42 35.34 41.27 34.86C41.03 34.06 40.92 33.39 40.87 32.75H30.25V24.9H40.82V24.2C40.82 23.88 40.87 23.56 40.98 23.23C41.42 21.9 41.48 20.42 41.48 19.16V16.83H41.49ZM42.67 27.72C42.67 26.89 41.99 26.21 41.16 26.21H31.57V31.45H41.16C41.99 31.45 42.67 30.77 42.67 29.94V27.72ZM39.51 29.94C38.87 29.94 38.35 29.42 38.35 28.78C38.35 28.14 38.87 27.62 39.51 27.62C40.15 27.62 40.67 28.14 40.67 28.78C40.67 29.42 40.15 29.94 39.51 29.94ZM39.51 28.63C39.43 28.63 39.36 28.7 39.36 28.78C39.36 28.95 39.66 28.95 39.66 28.78C39.66 28.69 39.59 28.63 39.51 28.63ZM41.01 13.47H35.58C35.27 13.47 35 13.28 34.89 13C34.85 12.92 34.83 12.83 34.83 12.74V12.73V9.88V1.29L14.63 1.31L14.65 4.16C14.65 4.52 14.36 4.81 13.99 4.81C13.63 4.81 13.33 4.52 13.33 4.16V1.29C13.33 0.58 13.91 0 14.62 0H34.84C35.55 0 36.13 0.58 36.13 1.29V9.88H41C41.99 9.88 42.8 10.69 42.8 11.68C42.81 12.66 42 13.47 41.01 13.47ZM41.01 11.19H36.14V12.16H41.01C41.28 12.16 41.5 11.94 41.5 11.67C41.49 11.41 41.28 11.19 41.01 11.19Z" fill="#333333"/>
</svg>
