<svg width="84" height="81" viewBox="0 0 84 81" fill="none" xmlns="http://www.w3.org/2000/svg">
<path fill-rule="evenodd" clip-rule="evenodd" d="M80.5621 62.8242C80.6194 63.924 80.8104 65.1203 81.2497 66.5481C81.5935 67.7058 81.7654 68.9214 81.7654 70.1563V78.0865C81.7654 79.688 80.4666 81 78.8622 81H8.97681C4.03001 81 0 76.9481 0 71.9507V27.3023C0 22.7487 3.66712 19.0634 8.17463 19.0634H16.101V12.8118C16.101 11.4419 17.2087 10.3228 18.5648 10.3228H57.1842C58.5402 10.3228 59.648 11.4419 59.648 12.8118V26.5112C59.648 27.2058 59.0941 27.7654 58.3874 27.7654C57.6808 27.7654 57.1269 27.2058 57.1269 26.5112V12.8118L18.5648 12.8504L18.5839 19.0634H18.603V25.9902V26.5112C18.603 27.2058 18.0491 27.7654 17.3424 27.7654C16.6548 27.7654 16.0819 27.2058 16.0819 26.5112V25.9902H10.6194C9.79809 25.9902 9.1296 26.6656 9.1296 27.4952C9.1296 28.3249 9.79809 29.0002 10.6194 29.0002H78.3274C80.2183 29.0002 81.7654 30.5631 81.7654 32.4733V36.969C81.7654 39.6124 81.6317 42.6996 80.6767 45.6131C80.543 45.999 80.4857 46.3464 80.4857 46.6937V48.4109C82.5293 49.1827 84 51.1508 84 53.4855V57.7689C84 60.065 82.5675 62.0331 80.5621 62.8242ZM79.2442 32.4733C79.2442 31.9524 78.824 31.5279 78.3083 31.5279H10.6194C8.40382 31.5279 6.62756 29.7141 6.62756 27.4952C6.62756 25.2763 8.42292 23.4626 10.6194 23.4626H16.101V21.591H8.17463C5.04229 21.591 2.50205 24.1572 2.50205 27.3023V71.9507C2.50205 75.5588 5.40518 78.4724 8.97681 78.4724H78.8622C79.0723 78.4724 79.2442 78.2987 79.2442 78.0865V70.1563C79.2442 69.1529 79.1105 68.1882 78.824 67.262C78.3656 65.7184 78.1555 64.4257 78.06 63.1908H57.7763V48.0443H77.9645V46.6937C77.9645 46.0762 78.06 45.4588 78.2701 44.8221C79.1105 42.2558 79.2251 39.4002 79.2251 36.969V32.4733H79.2442ZM81.4979 53.4855C81.4979 51.884 80.1992 50.5719 78.6139 50.5719H60.2974V60.6825H78.6139C80.1992 60.6825 81.4979 59.3704 81.4979 57.7689V53.4855ZM75.4625 57.7689C74.2401 57.7689 73.2469 56.7656 73.2469 55.5307C73.2469 54.2959 74.2401 53.2925 75.4625 53.2925C76.6849 53.2925 77.678 54.2959 77.678 55.5307C77.678 56.7656 76.6849 57.7689 75.4625 57.7689ZM75.4625 55.2413C75.3097 55.2413 75.176 55.3764 75.176 55.5307C75.176 55.8587 75.749 55.8587 75.749 55.5307C75.749 55.3571 75.6153 55.2413 75.4625 55.2413ZM78.3274 25.9902H67.9563C67.3643 25.9902 66.8486 25.6236 66.6385 25.0834C66.5621 24.929 66.5239 24.7554 66.5239 24.5817V24.5624V19.0634V2.48904L27.9427 2.52763L27.9809 8.02668C27.9809 8.7213 27.427 9.28085 26.7203 9.28085C26.0327 9.28085 25.4598 8.7213 25.4598 8.02668V2.48904C25.4598 1.1191 26.5675 0 27.9236 0H66.543C67.899 0 69.0068 1.1191 69.0068 2.48904V19.0634H78.3083C80.1992 19.0634 81.7462 20.6263 81.7462 22.5364C81.7654 24.4273 80.2183 25.9902 78.3274 25.9902ZM78.3274 21.591H69.0259V23.4626H78.3274C78.8431 23.4626 79.2633 23.0381 79.2633 22.5172C79.2442 22.0155 78.8431 21.591 78.3274 21.591Z" fill="#333333"/>
</svg>
