<svg width="104" height="93" viewBox="0 0 104 93" fill="none" xmlns="http://www.w3.org/2000/svg">
<path d="M78.3199 80.0829C78.3199 74.4615 73.8238 69.8995 68.2837 69.8995H10.0363C4.49611 69.8995 0 74.4615 0 80.0829V82.8167C0 88.438 4.49611 93 10.0363 93H68.2668C73.807 93 78.3031 88.438 78.3031 82.8167V80.0829H78.3199ZM76.1308 82.8167C76.1308 87.2078 72.6114 90.7788 68.2837 90.7788H10.0363C5.70855 90.7788 2.18912 87.2078 2.18912 82.8167V80.0829C2.18912 75.6917 5.70855 72.1207 10.0363 72.1207H68.2668C72.5946 72.1207 76.114 75.6917 76.114 80.0829V82.8167H76.1308Z" fill="#333333"/>
<path d="M12.2591 77.8446C10.5246 77.8446 9.12694 79.2798 9.12694 81.0226C9.12694 82.7825 10.5415 84.2006 12.2591 84.2006C13.9935 84.2006 15.3912 82.7654 15.3912 81.0226C15.408 79.2798 13.9935 77.8446 12.2591 77.8446ZM12.2591 81.9965C11.737 81.9965 11.3161 81.5694 11.3161 81.0397C11.3161 80.51 11.737 80.0829 12.2591 80.0829C12.7811 80.0829 13.2021 80.51 13.2021 81.0397C13.2189 81.5694 12.7811 81.9965 12.2591 81.9965Z" fill="#333333"/>
<path d="M66.0272 77.8446C64.2927 77.8446 62.8951 79.2798 62.8951 81.0226C62.8951 82.7825 64.3096 84.2006 66.0272 84.2006C67.7617 84.2006 69.1593 82.7654 69.1593 81.0226C69.1593 79.2798 67.7617 77.8446 66.0272 77.8446ZM66.0272 81.9965C65.5052 81.9965 65.0842 81.5694 65.0842 81.0397C65.0842 80.51 65.5052 80.0829 66.0272 80.0829C66.5492 80.0829 66.9702 80.51 66.9702 81.0397C66.9702 81.5694 66.5492 81.9965 66.0272 81.9965Z" fill="#333333"/>
<path d="M39.6062 10.1663C39.6062 11.9261 41.0207 13.3443 42.7383 13.3443C44.4728 13.3443 45.8705 11.9091 45.8705 10.1663C45.8705 8.40639 44.456 6.98824 42.7383 6.98824C41.0207 6.97116 39.6062 8.40639 39.6062 10.1663ZM43.6982 10.1663C43.6982 10.6959 43.2772 11.1231 42.7552 11.1231C42.2332 11.1231 41.8122 10.6959 41.8122 10.1663C41.8122 9.6366 42.2332 9.20944 42.7552 9.20944C43.2772 9.19236 43.6982 9.61951 43.6982 10.1663Z" fill="#333333"/>
<path d="M8.43653 66.8582C9.04275 66.8582 9.53109 66.3627 9.53109 65.7476V49.8916H31.0687V65.7476C31.0687 66.3627 31.557 66.8582 32.1632 66.8582C32.7694 66.8582 33.2578 66.3627 33.2578 65.7476V49.8916H54.7953V65.7476C54.7953 66.3627 55.2837 66.8582 55.8899 66.8582C56.4961 66.8582 56.9845 66.3627 56.9845 65.7476V47.6704H7.34197V65.7476C7.34197 66.3627 7.83031 66.8582 8.43653 66.8582Z" fill="#333333"/>
<path d="M19.601 61.6298H13.5725V64.7737H19.601V61.6298Z" fill="#333333"/>
<path d="M43.3277 61.6298H37.2992V64.7737H43.3277V61.6298Z" fill="#333333"/>
<path d="M30.9845 35.0608H34.9249V39.2128C34.9249 41.9636 37.1308 44.2019 39.842 44.2019H45.6347C48.3459 44.2019 50.5518 41.9636 50.5518 39.2128V35.0608H55.1826C56.4456 35.0608 57.456 34.0186 57.456 32.7542V26.3127C57.456 24.6212 56.7655 22.9638 55.5699 21.7849L50.1308 16.4369H79.3471C79.9534 16.4369 80.4417 15.9414 80.4417 15.3263C80.4417 14.7112 79.9534 14.2157 79.3471 14.2157H49.0026L48.6658 14.6599C47.1839 16.659 44.9443 17.8209 42.5194 17.8209C38.2759 17.8209 34.8238 14.3182 34.8238 10.0125C34.8238 5.70678 38.2759 2.20412 42.5194 2.20412C44.9948 2.20412 47.2681 3.38306 48.7332 5.45049L49.0531 5.91181H89.7539C90.3601 5.91181 90.8484 5.41631 90.8484 4.80121C90.8484 4.18611 90.3601 3.69061 89.7539 3.69061H50.1645C48.2953 1.36689 45.4832 0 42.5363 0C37.0971 0 32.6516 4.49366 32.6516 10.0296C32.6516 12.4387 33.4935 14.6599 34.908 16.4027L30.513 20.8964C29.351 22.0753 28.7111 23.6643 28.7111 25.3217V32.7542C28.7111 34.0186 29.7383 35.0608 30.9845 35.0608ZM48.3627 39.2128C48.3627 40.7334 47.1334 41.9807 45.6347 41.9807H39.842C38.3433 41.9807 37.114 40.7334 37.114 39.2128V29.0807C37.114 27.56 38.3433 26.3127 39.842 26.3127H45.6347C47.1334 26.3127 48.3627 27.56 48.3627 29.0807V39.2128ZM30.9003 25.3217C30.9003 24.2453 31.3212 23.2201 32.0622 22.4512L36.4741 17.9405C38.1412 19.2561 40.2461 20.0592 42.5194 20.0592C44.7254 20.0592 46.8135 19.3245 48.5311 17.9746L54.0544 23.408C54.829 24.1769 55.2837 25.2363 55.2837 26.3298L55.1995 32.8567H50.5687V29.0977C50.5687 26.3469 48.3627 24.1086 45.6516 24.1086H39.8588C37.1477 24.1086 34.9417 26.3469 34.9417 29.0977V32.8567L30.9003 32.7713V25.3217Z" fill="#333333"/>
<path d="M100.683 19.5295C100.262 19.1023 100.026 18.5385 100.026 17.9405C100.026 17.3425 100.245 16.7615 100.666 16.3344L102.838 14.1303C103.596 13.3614 104 12.3533 104 11.2769C104 10.2004 103.579 9.17527 102.838 8.42348L100.632 6.18519C99.1334 4.66452 96.5065 4.66452 94.9909 6.18519L74.1101 27.372C67.5764 27.6625 62.3562 33.113 62.3562 39.8108C62.3562 41.8269 62.8446 43.7235 63.6697 45.3979L62.4404 48.3368C62.2047 48.9006 62.4572 49.5499 63.0129 49.7891C63.1477 49.8574 63.2992 49.8745 63.4339 49.8745C63.8549 49.8745 64.2591 49.6182 64.4443 49.1911L65.101 47.6362C67.3575 50.4554 70.7927 52.2495 74.6321 52.2495C78.7241 52.2495 82.3446 50.1992 84.5842 47.0724L86.9922 54.9149V90.1466H79.1788C78.5725 90.1466 78.0842 90.6421 78.0842 91.2572C78.0842 91.8723 78.5725 92.3678 79.1788 92.3678H89.1813V54.7783L86.0492 44.4069C86.487 43.2793 86.7733 42.0832 86.8744 40.8189C86.908 40.8018 86.9417 40.7847 86.9754 40.7505L101.979 25.6634C102.619 25.0141 102.973 24.1428 102.973 23.2201C102.973 22.2974 102.619 21.4431 101.962 20.7939L100.683 19.5295ZM74.649 50.0625C69.0751 50.0625 64.5453 45.4663 64.5453 39.8108C64.5453 34.1552 69.0751 29.5591 74.649 29.5591C80.2228 29.5591 84.7526 34.1552 84.7526 39.8108C84.7526 45.4663 80.206 50.0625 74.649 50.0625ZM100.447 24.0915L86.7733 37.8459C85.965 32.6858 82.0415 28.5852 77.0065 27.5771L96.5402 7.75712C97.2137 7.07367 98.4093 7.07367 99.0829 7.75712L101.289 9.99541C101.626 10.3371 101.811 10.7985 101.811 11.2769C101.811 11.7553 101.626 12.2166 101.289 12.5583L99.1166 14.7624C98.2746 15.6168 97.82 16.7444 97.82 17.9405C97.82 19.1365 98.2915 20.2642 99.1334 21.1014L100.413 22.3658C100.632 22.5879 100.767 22.8955 100.767 23.2201C100.784 23.5618 100.666 23.8694 100.447 24.0915Z" fill="#333333"/>
<path d="M91.8178 19.9701L89.8291 21.9874L92.2816 24.4766L94.2703 22.4592L91.8178 19.9701Z" fill="#333333"/>
<path d="M87.4367 24.4147L85.4485 26.4326L87.9018 28.9211L89.89 26.9032L87.4367 24.4147Z" fill="#333333"/>
<path d="M74.6153 33.1301C74.0091 33.1301 73.5207 33.6256 73.5207 34.2407V37.0599C73.5207 37.675 74.0091 38.1705 74.6153 38.1705C75.2215 38.1705 75.7098 37.675 75.7098 37.0599V34.2407C75.7098 33.6256 75.2215 33.1301 74.6153 33.1301Z" fill="#333333"/>
<path d="M74.6153 41.4681C74.0091 41.4681 73.5207 41.9636 73.5207 42.5787V45.3979C73.5207 46.013 74.0091 46.5085 74.6153 46.5085C75.2215 46.5085 75.7098 46.013 75.7098 45.3979V42.5787C75.7098 41.9636 75.2215 41.4681 74.6153 41.4681Z" fill="#333333"/>
<path d="M72.3756 38.7002H69.5972C68.9909 38.7002 68.5026 39.1957 68.5026 39.8108C68.5026 40.4259 68.9909 40.9214 69.5972 40.9214H72.3756C72.9819 40.9214 73.4702 40.4259 73.4702 39.8108C73.4702 39.1957 72.965 38.7002 72.3756 38.7002Z" fill="#333333"/>
<path d="M79.7008 38.7002H76.9223C76.3161 38.7002 75.8277 39.1957 75.8277 39.8108C75.8277 40.4259 76.3161 40.9214 76.9223 40.9214H79.7008C80.307 40.9214 80.7953 40.4259 80.7953 39.8108C80.7953 39.1957 80.2902 38.7002 79.7008 38.7002Z" fill="#333333"/>
</svg>
