<svg width="45" height="32" viewBox="0 0 45 32" fill="none" xmlns="http://www.w3.org/2000/svg">
<g filter="url(#filter0_d)">
<path d="M39.5504 23.9095C39.3563 23.9337 39.1562 23.9639 38.956 23.9639C37.015 23.97 35.0619 23.9639 33.1209 23.97C32.848 23.976 32.6236 23.8671 32.4234 23.6917C32.0109 23.3408 31.5985 22.99 31.2224 22.5967C30.2459 21.5683 29.3057 20.5097 28.3352 19.4631C28.038 19.1365 27.7104 18.834 27.4011 18.5315C27.2313 18.3621 27.025 18.3258 26.8188 18.3319C26.5337 18.3379 26.2911 18.471 26.1819 18.7553C26.0788 19.0094 25.9939 19.2877 25.9696 19.5539C25.9211 20.0439 25.915 20.546 25.909 21.036C25.9029 21.5925 25.8847 22.143 25.7391 22.6814C25.6785 22.9234 25.5814 23.1654 25.4662 23.3711C25.266 23.7401 24.9445 23.9458 24.5442 23.9518C22.8458 23.9942 21.1475 24.0184 19.4552 23.9034C19.1398 23.8792 18.8486 23.7764 18.5757 23.6252C16.9926 22.7964 15.5975 21.6893 14.3965 20.3161C12.9286 18.6404 11.5881 16.8498 10.2537 15.0531C8.45831 12.6394 6.90552 10.0502 5.51044 7.35214C5.00093 6.38423 4.50962 5.38607 4.14569 4.32741C3.96372 3.80111 3.96372 3.28086 4.09716 2.75456C4.13962 2.59727 4.20634 2.44604 4.28519 2.3069C4.40044 2.10727 4.57634 1.99233 4.80683 1.98628C4.88569 1.98628 4.9706 1.98628 5.04946 1.98628C6.81454 1.98628 8.57962 1.99233 10.3447 1.98023C10.6904 1.97418 10.9573 2.10122 11.1939 2.34925C11.6245 2.81505 11.9703 3.3595 12.2736 3.9221C12.6011 4.5331 12.9286 5.15619 13.2259 5.78533C13.8688 7.18275 14.6513 8.48943 15.4883 9.75982C15.8947 10.3829 16.3314 10.9758 16.756 11.5807C16.9501 11.865 17.2231 11.9679 17.5324 11.98C17.8357 11.986 17.957 11.859 17.9691 11.5323C17.9752 11.4537 17.9752 11.375 17.9752 11.2964C17.9752 9.17302 17.9752 7.04362 17.9691 4.92026C17.9691 4.75088 17.9691 4.58754 17.957 4.41816C17.9206 4.04309 17.7326 3.81926 17.3808 3.74667C17.217 3.71642 17.0593 3.69827 16.8955 3.67407C16.3981 3.60753 16.1919 3.3837 16.1434 2.8453C16.0706 2.04677 16.4224 1.41763 17.1381 1.13331C17.4354 1.01837 17.7508 0.98812 18.0783 0.994169C19.6493 0.994169 21.2203 0.994169 22.7913 0.994169C23.1127 0.994169 23.4281 0.976021 23.7496 1.00627C24.0772 1.03652 24.4168 1.08491 24.7383 1.1817C25.4298 1.39948 25.824 1.89554 25.9029 2.66987C25.9211 2.8574 25.9272 3.03888 25.9272 3.22642C25.9332 4.51495 25.9332 5.80953 25.9332 7.09806C25.9332 8.46524 25.9332 9.83241 25.9332 11.2056C25.9332 11.3327 25.9454 11.4779 25.9818 11.6049C26.097 12.0163 26.5155 12.1554 26.8673 11.8953C27.9167 11.127 28.6021 10.0562 29.1359 8.85845C29.6272 7.7514 30.0457 6.61411 30.5067 5.49496C30.8706 4.60569 31.2527 3.72852 31.6288 2.8453C31.7259 2.62752 31.8654 2.43394 31.9927 2.22826C32.108 2.04677 32.2657 1.97418 32.478 1.97418C34.7586 1.98023 37.0393 1.98023 39.32 1.97418C39.878 1.97418 40.3208 2.21616 40.6665 2.66987C40.7878 2.82715 40.8363 3.02073 40.8667 3.23246C41.0062 4.19433 40.6968 5.0231 40.2662 5.83373C39.8598 6.59596 39.3745 7.29769 38.8468 7.96313C37.755 9.34241 36.6875 10.7398 35.7473 12.2522C35.5047 12.6394 35.3045 13.0507 35.0801 13.456C34.9163 13.7464 34.9406 14.0307 35.1408 14.2848C35.5532 14.8172 35.9536 15.3616 36.3842 15.8698C37.4154 17.0797 38.4647 18.2532 39.5019 19.451C39.8355 19.8382 40.1327 20.2496 40.4421 20.667C40.5452 20.8001 40.618 20.9573 40.7211 21.0904C41.4914 22.1733 40.5209 23.7643 39.5504 23.9095Z" fill="#737373"/>
</g>
<defs>
<filter id="filter0_d" x="0.00244141" y="0.98877" width="44.9972" height="30.9982" filterUnits="userSpaceOnUse" color-interpolation-filters="sRGB">
<feFlood flood-opacity="0" result="BackgroundImageFix"/>
<feColorMatrix in="SourceAlpha" type="matrix" values="0 0 0 0 0 0 0 0 0 0 0 0 0 0 0 0 0 0 127 0"/>
<feOffset dy="4"/>
<feGaussianBlur stdDeviation="2"/>
<feColorMatrix type="matrix" values="0 0 0 0 0 0 0 0 0 0 0 0 0 0 0 0 0 0 0.25 0"/>
<feBlend mode="normal" in2="BackgroundImageFix" result="effect1_dropShadow"/>
<feBlend mode="normal" in="SourceGraphic" in2="effect1_dropShadow" result="shape"/>
</filter>
</defs>
</svg>
