<svg width="100" height="86" viewBox="0 0 100 86" fill="none" xmlns="http://www.w3.org/2000/svg">
<path d="M70.0316 82.1394L69.9601 82.1276C68.8964 81.9503 67.8894 82.6651 67.7114 83.7237C67.6931 83.8323 67.6843 83.9402 67.6843 84.0467C67.6843 84.9791 68.3607 85.8024 69.3156 85.9611L69.387 85.973C69.496 85.9911 69.6046 86 69.7116 86C70.6486 86 71.4759 85.3268 71.6357 84.3767C71.654 84.2682 71.6628 84.1604 71.6628 84.0537C71.6628 83.1216 70.9863 82.2984 70.0316 82.1394Z" fill="#FDB914"/>
<path d="M32.2889 83.7237C32.111 82.6653 31.1041 81.9501 30.0402 82.1276L29.9688 82.1394C29.0139 82.2984 28.3375 83.1214 28.3375 84.0537C28.3375 84.1604 28.3463 84.268 28.3647 84.3767C28.5242 85.327 29.3514 86 30.2885 86C30.3955 86 30.5041 85.9911 30.6133 85.973L30.6848 85.9611C31.6397 85.8022 32.316 84.9791 32.316 84.0467C32.316 83.9402 32.307 83.8323 32.2889 83.7237Z" fill="#FDB914"/>
<path d="M84.3644 57.6683C85.5332 57.6683 86.6922 57.4639 87.8367 57.0546C95.7047 54.2411 99.7324 42.442 99.9 41.9412C100.089 41.3764 100.007 40.7567 99.6789 40.2595C99.3504 39.7622 98.811 39.4423 98.215 39.391C92.1533 38.8708 87.2076 39.8526 83.4863 42.3124C83.7849 40.3404 83.956 38.4456 84.0369 36.6677C84.0683 36.6679 84.0996 36.6681 84.131 36.6681C86.8412 36.6681 89.1707 35.7917 91.0738 34.0519C96.7307 28.8807 96.2219 17.7794 96.1975 17.3093C96.1656 16.6968 95.8449 16.1351 95.3324 15.7941C94.8199 15.4534 94.1756 15.3733 93.5947 15.578C88.1785 17.4875 84.9304 20.1597 82.9929 22.8059C82.7326 21.4744 82.4734 20.4036 82.2752 19.6525C83.8277 17.4015 84.3773 15.007 83.9088 12.5157C82.5789 5.44293 73.1523 0.433821 72.7517 0.223934C72.2204 -0.0543615 71.5904 -0.0737951 71.0427 0.170685C70.495 0.415164 70.0908 0.89635 69.9462 1.47607C68.5161 7.21318 68.9741 11.9939 71.3079 15.685C73.6191 19.3408 77.115 20.8038 78.6642 21.296C79.157 23.3036 79.9033 26.978 80.1257 31.5271C75.8435 26.5277 69.2449 23.5978 69.162 23.5733C68.6331 23.4165 68.0624 23.4897 67.5904 23.7745C67.1187 24.0595 66.79 24.53 66.6861 25.0693C65.346 32.0152 66.1849 37.6824 69.179 41.9138C72.1687 46.1383 76.4345 47.6169 78.206 48.0689C78.072 48.5134 75.7214 54.5787 74.4728 56.7337C72.8706 48.9075 64.5747 42.0479 64.1831 41.7282C63.7167 41.3471 63.0993 41.2025 62.5106 41.3354C61.9222 41.4687 61.4286 41.8652 61.1735 42.4093C58.0745 49.0247 57.4751 54.9297 59.3921 59.9602C60.8421 63.7654 63.4251 66.1932 65.3327 67.5585C62.7079 69.7825 59.7433 71.7904 56.444 73.5788C57.0306 72.26 57.422 70.7974 57.422 69.2424C57.422 63.1676 51.4491 58.502 51.1948 58.3065C50.4911 57.7653 49.5089 57.7653 48.8053 58.3065C48.551 58.502 42.5782 63.1674 42.5782 69.2422C42.5782 70.7972 42.9696 72.2596 43.5561 73.5786C40.2569 71.7902 37.292 69.7823 34.6672 67.5583C36.5748 66.1929 39.1578 63.7652 40.6079 59.9598C42.5249 54.9291 41.9254 49.0243 38.8264 42.4089C38.5713 41.8646 38.0778 41.4681 37.4893 41.335C36.9008 41.2021 36.2834 41.3469 35.8168 41.7278C35.4252 42.0475 27.1293 48.9071 25.5271 56.7334C24.2785 54.5781 21.9279 48.513 21.7939 48.0685C23.5654 47.6165 27.8313 46.1379 30.8209 41.9134C33.8151 37.6822 34.6537 32.0149 33.3139 25.069C33.2098 24.5297 32.8813 24.0592 32.4096 23.7741C31.9379 23.4894 31.3666 23.4161 30.8379 23.5729C30.7553 23.5974 24.1566 26.5271 19.8742 31.5267C20.0969 26.9772 20.843 23.303 21.3359 21.2956C22.8851 20.8032 26.3811 19.3404 28.6922 15.6847C31.0258 11.9936 31.484 7.21279 30.0539 1.47568C29.9094 0.896156 29.5051 0.414775 28.9574 0.170295C28.41 -0.0741843 27.7797 -0.0545556 27.2486 0.223545C26.848 0.433432 17.4215 5.44274 16.0916 12.5154C15.623 15.0066 16.1724 17.4013 17.7252 19.6521C17.5269 20.4032 17.2677 21.474 17.0074 22.8055C15.0699 20.1593 11.8218 17.4874 6.40561 15.5776C5.82475 15.3725 5.18021 15.4528 4.66791 15.7937C4.1554 16.1347 3.8347 16.6964 3.80286 17.309C3.77845 17.7791 3.26966 28.8803 8.92651 34.0515C10.8298 35.7915 13.1588 36.6677 15.8693 36.6677C15.9006 36.6677 15.932 36.6676 15.9633 36.6674C16.0441 38.4452 16.2152 40.3398 16.5138 42.312C12.7925 39.8522 7.8476 38.87 1.78509 39.3908C1.18919 39.4421 0.64973 39.762 0.321214 40.2593C-0.00749805 40.7567 -0.0889436 41.3762 0.100119 41.941C0.267698 42.4418 4.29544 54.2409 12.1634 57.0544C13.3082 57.4639 14.4668 57.6681 15.6357 57.6681C17.3658 57.6681 19.1179 57.2204 20.8785 56.3268C21.408 57.3869 24.0674 61.7339 24.8627 62.8047C20.3582 62.164 14.5121 63.0533 7.26479 67.4322C6.7558 67.7398 6.41557 68.2616 6.34096 68.8493C6.26615 69.437 6.46498 70.0268 6.881 70.4507C7.3058 70.8838 16.9345 80.5835 26.4471 80.5835C26.9238 80.5835 27.401 80.5591 27.876 80.5078C31.7176 80.0942 34.9067 78.046 37.3641 74.4173C39.6491 75.9147 42.1102 77.2922 44.7458 78.5488C42.5268 79.2774 40.2071 79.9374 37.7875 80.5282C36.7401 80.7839 36.099 81.8364 36.3563 82.8789C36.575 83.7659 37.3731 84.3594 38.2516 84.3594C38.4057 84.3594 38.5623 84.3411 38.7188 84.303C42.7368 83.3218 46.4985 82.1548 50.0005 80.8047C53.5024 82.1548 57.2643 83.3218 61.2821 84.303C61.4386 84.3411 61.5952 84.3594 61.7493 84.3594C62.6278 84.3594 63.4259 83.7655 63.6446 82.8789C63.9017 81.8364 63.2608 80.7841 62.2134 80.5282C59.7938 79.9374 57.4741 79.2772 55.2552 78.5488C57.8907 77.2922 60.3521 75.9147 62.6368 74.4173C65.0943 78.046 68.2833 80.094 72.1249 80.5078C72.6007 80.5591 73.0765 80.5835 73.5538 80.5835C83.0658 80.5835 92.6949 70.884 93.1199 70.4507C93.5359 70.0266 93.7346 69.437 93.66 68.8493C93.5852 68.2616 93.2449 67.7398 92.7361 67.4322C85.4888 63.0533 79.6429 62.164 75.1382 62.8047C75.9328 61.7339 78.5923 57.3869 79.1218 56.3268C80.8824 57.2206 82.6341 57.6683 84.3644 57.6683ZM92.251 20.3313C92.0185 23.796 91.1053 28.7494 88.4264 31.1938C87.2666 32.2519 85.8551 32.7761 84.1373 32.7802C83.8199 30.2001 84.0978 24.237 92.251 20.3313ZM83.9566 46.9155C86.6986 44.6178 90.2601 43.141 95.1447 43.141C95.1719 43.141 95.1986 43.141 95.226 43.1412C93.6111 46.7264 90.5057 51.9701 86.5158 53.3967C84.7111 54.0423 82.8566 53.8645 80.8716 52.8514C80.9238 52.4979 82.1144 48.4591 83.9566 46.9155ZM79.1568 17.2985C79.142 17.3062 79.1271 17.3142 79.1125 17.3222C77.8962 16.8173 75.9529 15.7321 74.6144 13.6149C73.2119 11.3965 72.7454 8.52808 73.2195 5.06436C75.9165 6.91001 79.4634 9.99166 80.0701 13.2358C80.3297 14.6245 80.0306 15.9628 79.1568 17.2985ZM15.8638 32.7802C14.1459 32.7761 12.7338 32.2521 11.5738 31.1938C8.89487 28.7496 7.98159 23.796 7.74917 20.3313C15.9086 24.2401 16.1808 30.2085 15.8638 32.7802ZM13.4898 53.3985C9.51148 51.9796 6.39916 46.7307 4.77806 43.1412C4.80365 43.141 4.82982 43.141 4.85541 43.141C9.73941 43.141 13.4959 44.4064 16.0435 46.9155C17.2939 48.147 18.0619 49.4975 18.5252 50.6643C18.6226 50.9525 19.0763 52.4977 19.1287 52.8514C17.1461 53.8635 15.2929 54.0417 13.4898 53.3985ZM19.9301 13.2358C20.5367 9.99185 24.0836 6.91001 26.7807 5.06436C27.2512 8.50301 26.7949 11.3553 25.4158 13.5671C24.0738 15.7194 22.1023 16.8179 20.8771 17.3255C20.8687 17.3208 20.8605 17.3163 20.8519 17.3119C19.9715 15.9717 19.6695 14.629 19.9301 13.2358ZM20.3883 38.4823C21.2269 34.1952 26.4152 30.4798 29.8776 28.4415C30.3729 33.0589 29.6305 36.8131 27.6611 39.6274C25.7268 42.3913 23.0002 43.614 21.493 44.1069C20.8484 43.0946 19.9545 40.7001 20.3883 38.4823ZM27.4615 76.6431C21.5473 77.2807 14.7896 72.2429 11.5714 69.4731C17.2545 66.5234 22.2754 65.9869 26.7275 67.2192C30.3266 68.2154 33.4348 72.0027 33.8487 72.6397C32.0983 75.0553 30.0004 76.3679 27.4615 76.6431ZM31.7404 64.8344C31.6563 64.7549 29.2725 62.458 29.1678 59.3849C28.9994 54.4394 33.6293 49.2099 36.3336 46.5369C38.0348 51.1037 38.2524 55.1281 36.9762 58.5267C35.6955 61.9374 33.1572 63.9373 31.7404 64.8344ZM50.0034 76.0162C48.6079 74.6142 46.4844 72.0234 46.4844 69.2422C46.4844 66.4412 48.6044 63.8604 49.9999 62.4648C51.3964 63.8614 53.5155 66.4416 53.5155 69.2422C53.5155 72.0409 51.3989 74.62 50.0034 76.0162ZM63.0239 58.5269C61.7478 55.1283 61.9653 51.1039 63.6665 46.5371C66.371 49.2101 70.9035 54.437 70.8324 59.3851C70.8058 61.2292 70.1214 62.8636 68.7491 64.3414C68.6675 64.4269 68.5857 64.5124 68.503 64.5973C68.4239 64.6768 68.3431 64.7557 68.2599 64.8342C66.8398 63.935 64.3036 61.9354 63.0239 58.5269ZM88.4426 69.4803C84.774 72.6364 78.0845 77.2415 72.5449 76.6435C70.0031 76.3699 67.9036 75.0573 66.1517 72.6395C66.5656 72.0025 70.1175 68.2394 73.2728 67.219C77.6712 65.7966 82.7539 66.5248 88.4426 69.4803ZM72.373 39.6755C70.3781 36.8563 69.6243 33.0853 70.1226 28.4411C73.5849 30.4796 78.5312 34.249 79.6119 38.4821C80.0457 40.1818 79.1494 43.1 78.5025 44.1141C77.0105 43.6343 74.3269 42.4365 72.373 39.6755Z" fill="#FDB914"/>
</svg>
