<svg width="88" height="65" viewBox="0 0 88 65" fill="none" xmlns="http://www.w3.org/2000/svg">
<path d="M74.25 51.3158C72.3506 51.3158 70.8125 52.8466 70.8125 54.7368C70.8125 56.6271 72.3506 58.1579 74.25 58.1579C76.1494 58.1579 77.6875 56.6271 77.6875 54.7368C77.6875 52.8466 76.1494 51.3158 74.25 51.3158Z" fill="#FDB914"/>
<path d="M72.5312 37.6316C71.5826 37.6316 70.8125 38.398 70.8125 39.3421C70.8125 40.2862 71.5826 41.0526 72.5312 41.0526C73.4799 41.0526 74.25 40.2862 74.25 39.3421C74.25 38.398 73.4799 37.6316 72.5312 37.6316Z" fill="#FDB914"/>
<path d="M21.6562 51.3158C19.7569 51.3158 18.2188 52.8466 18.2188 54.7368C18.2188 56.6271 19.7569 58.1579 21.6562 58.1579C23.5556 58.1579 25.0938 56.6271 25.0938 54.7368C25.0938 52.8466 23.5556 51.3158 21.6562 51.3158Z" fill="#FDB914"/>
<path d="M80.7759 30.8991L77.8124 19.1018C78.8658 18.0988 79.4062 16.7685 79.4062 15.3947C79.4062 12.565 77.0933 10.2632 74.25 10.2632H60.5V5.13158C60.5 2.30186 58.1871 0 55.3438 0H5.15625C2.31293 0 0 2.30186 0 5.13158V49.6053C0 52.435 2.31293 54.7368 5.15625 54.7368H11.3438C11.3438 60.3963 15.9696 65 21.6562 65C27.3429 65 31.9688 60.3963 31.9688 54.7368H63.9375C63.9375 60.3963 68.5634 65 74.25 65C79.9366 65 84.5625 60.3963 84.5625 54.7368C84.5625 54.6393 84.5578 54.5424 84.5551 54.4449C86.5592 53.7413 88 51.8376 88 49.6053V39.3421C88 35.0898 84.866 31.5539 80.7759 30.8991ZM74.6266 20.5263L77.2048 30.7895H62.9304L66.8715 26.8673C67.5428 26.1991 67.5428 25.1167 66.8715 24.4485C66.2001 23.7803 65.1124 23.7803 64.441 24.4485L60.5 28.37V20.5263H74.6266ZM75.9688 15.3947C75.9688 16.3389 75.1987 17.1053 74.25 17.1053H60.5V13.6842H74.25C75.198 13.6842 75.9688 14.4513 75.9688 15.3947ZM21.6562 61.5789C17.8656 61.5789 14.7812 58.5094 14.7812 54.7368C14.7812 50.9129 17.9213 47.8947 21.6562 47.8947C25.3999 47.8947 28.5312 50.9209 28.5312 54.7368C28.5312 58.5094 25.4469 61.5789 21.6562 61.5789ZM31.3786 51.3158C29.9432 47.2794 26.0579 44.4737 21.6562 44.4737C17.2526 44.4737 13.366 47.2814 11.9332 51.3158H5.15625C4.20825 51.3158 3.4375 50.5487 3.4375 49.6053V5.13158C3.4375 4.18812 4.20825 3.42105 5.15625 3.42105H55.3438C56.2917 3.42105 57.0625 4.18812 57.0625 5.13158V51.3158H31.3786ZM74.25 61.5789C70.4594 61.5789 67.375 58.5094 67.375 54.7368C67.375 50.9129 70.5151 47.8947 74.25 47.8947C77.9937 47.8947 81.125 50.9209 81.125 54.7368C81.125 58.5094 78.0406 61.5789 74.25 61.5789ZM83.8502 50.9891C82.3254 47.1283 78.5321 44.4737 74.25 44.4737C69.8464 44.4737 65.9597 47.2814 64.527 51.3158H60.5V34.2105H79.4062C81.6467 34.2105 83.5574 35.6404 84.2671 37.6316H79.4062C78.4569 37.6316 77.6875 38.3973 77.6875 39.3421C77.6875 40.2869 78.4569 41.0526 79.4062 41.0526H84.5625V49.6053C84.5625 50.1739 84.2805 50.6777 83.8502 50.9891Z" fill="#FDB914"/>
<path d="M30.25 10.2632C21.7207 10.2632 14.7812 17.1694 14.7812 25.6579C14.7812 34.1464 21.7207 41.0526 30.25 41.0526C38.7793 41.0526 45.7188 34.1464 45.7188 25.6579C45.7188 17.1694 38.7793 10.2632 30.25 10.2632ZM30.25 37.6316C23.616 37.6316 18.2188 32.2601 18.2188 25.6579C18.2188 19.0557 23.616 13.6842 30.25 13.6842C36.884 13.6842 42.2812 19.0557 42.2812 25.6579C42.2812 32.2601 36.884 37.6316 30.25 37.6316Z" fill="#FDB914"/>
<path d="M37.125 23.9474H31.9688V18.8158C31.9688 17.871 31.1993 17.1053 30.25 17.1053C29.3007 17.1053 28.5312 17.871 28.5312 18.8158V25.6579C28.5312 26.6027 29.3007 27.3684 30.25 27.3684H37.125C38.0743 27.3684 38.8438 26.6027 38.8438 25.6579C38.8438 24.7131 38.0743 23.9474 37.125 23.9474Z" fill="#FDB914"/>
</svg>
