<svg width="24" height="26" viewBox="0 0 24 26" fill="none" xmlns="http://www.w3.org/2000/svg">
<path d="M24 9.14062H22.1818V6.53987L15.4917 0H1.81818V9.14062H0V22.1406H1.81818V26H22.1818V22.1406H24V9.14062ZM15.9481 2.60075L19.5213 6.09375H15.9481V2.60075ZM3.37662 1.52344H14.3896V7.61719H20.6234V9.14062H3.37662V1.52344ZM20.6234 24.4766H3.37662V22.1406H20.6234V24.4766ZM22.4416 20.6172H1.55844V10.6641H22.4416V20.6172Z" fill="white"/>
<path d="M5.35065 16.9102H6.1039C7.40726 16.9102 8.46753 15.8737 8.46753 14.5996C8.46753 13.3255 7.40726 12.2891 6.1039 12.2891H3.79221V19.1953H5.35065V16.9102ZM5.35065 13.8125H6.1039C6.54789 13.8125 6.90909 14.1656 6.90909 14.5996C6.90909 15.0336 6.54789 15.3867 6.1039 15.3867H5.35065V13.8125Z" fill="white"/>
<path d="M14.7013 16.1484V15.3359C14.7013 13.6558 13.3032 12.2891 11.5844 12.2891H10.026V19.1953H11.5844C13.3032 19.1953 14.7013 17.8286 14.7013 16.1484ZM11.5844 13.8125C12.4438 13.8125 13.1429 14.4959 13.1429 15.3359V16.1484C13.1429 16.9885 12.4438 17.6719 11.5844 17.6719V13.8125Z" fill="white"/>
<path d="M17.9221 17.0879H19.4805V15.5645H17.9221V13.8125H20.2597V12.2891H16.3636V19.1953H17.9221V17.0879Z" fill="white"/>
</svg>
