<svg width="74" height="86" viewBox="0 0 74 86" fill="none" xmlns="http://www.w3.org/2000/svg">
<path d="M72.5852 86H68.5728C67.8297 86 67.229 85.3993 67.229 84.6562V81.9405H6.771V84.6562C6.771 85.3993 6.17035 86 5.42725 86H1.396C0.652908 86 0.0522537 85.3993 0.0522537 84.6562V3.35938C0.0522537 1.50769 1.55859 0 3.41163 0C5.26466 0 6.771 1.50769 6.771 3.35938V24.1929H10.7996V5.38575C10.7996 4.644 11.4002 4.042 12.1433 4.042H33.6379C34.381 4.042 34.9817 4.644 34.9817 5.38575V24.1915H39.0156V5.38575C39.0156 4.644 39.6163 4.042 40.3594 4.042H61.854C62.5971 4.042 63.1978 4.644 63.1978 5.38575V24.1915H67.229V3.35938C67.229 1.50769 68.7353 0 70.5884 0C72.4414 0 73.9478 1.50769 73.9478 3.35938L73.9289 84.6562C73.9289 85.3993 73.3283 86 72.5852 86ZM4.0835 3.35938C4.0835 2.9885 3.78116 2.6875 3.41163 2.6875C3.0421 2.6875 2.73975 2.9885 2.73975 3.35938V83.3125H4.0835V3.35938ZM24.2371 6.7295H21.5469V8.084H24.2371V6.7295ZM32.2942 6.7295H26.9246V9.42775C26.9246 10.1695 26.3239 10.7715 25.5808 10.7715H20.2031C19.46 10.7715 18.8594 10.1695 18.8594 9.42775V6.7295H13.4871V24.1915H32.2942V6.7295ZM52.4531 6.7295H49.7656V8.084H52.4531V6.7295ZM60.5103 6.7295H55.1406V9.42775C55.1406 10.1695 54.54 10.7715 53.7969 10.7715H48.4219C47.6788 10.7715 47.0781 10.1695 47.0781 9.42775V6.7295H41.7031V24.1915H60.5103V6.7295ZM67.229 26.879H61.854H40.3594H33.6379H12.1433H6.771V28.2228H67.229V26.879ZM67.229 30.9103H6.771V49.6838H10.7969V34.916C10.7969 34.1742 11.3975 33.5723 12.1406 33.5723H61.8594C62.6025 33.5723 63.2031 34.1742 63.2031 34.916V49.6852H67.229V30.9103ZM40.3594 40.291H33.6406C32.8975 40.291 32.2969 39.689 32.2969 38.9473V36.2598H13.4844V49.6852H60.5156V36.2598H41.7031V38.9473C41.7031 39.689 41.1025 40.291 40.3594 40.291ZM39.0156 37.6035V36.2598H34.9844V37.6035H39.0156ZM67.229 52.3727H61.8594H12.1406H6.771V53.7191H67.229V52.3727ZM67.229 56.4066H6.771V75.2191H10.7942V59.1075C10.7942 58.3644 11.3948 57.7638 12.1379 57.7638H30.9531C31.6962 57.7638 32.2969 58.3644 32.2969 59.1075V75.2191H36.3201V63.1415C36.3201 62.3984 36.9207 61.7977 37.6638 61.7977H47.062C47.0674 61.7977 47.0701 61.795 47.0754 61.795C47.0808 61.795 47.0835 61.7977 47.0889 61.7977H52.4397C52.4451 61.7977 52.4478 61.795 52.4531 61.795C52.4585 61.795 52.4612 61.7977 52.4666 61.7977H61.854C62.5971 61.7977 63.1978 62.3984 63.1978 63.1415V75.2191H67.229V56.4066ZM24.2344 64.4919H18.8567C18.1136 64.4919 17.5129 63.8913 17.5129 63.1482V60.4499H13.4817V75.2178H29.6094V60.4499H25.5781V63.1482C25.5781 63.8913 24.9775 64.4919 24.2344 64.4919ZM22.8906 61.8044V60.4499H20.2004V61.8044H22.8906ZM52.4531 68.5232H47.0754C46.3323 68.5232 45.7317 67.9225 45.7317 67.1794V64.4839H39.0076V75.2178H60.5103V64.4839H53.7969V67.1794C53.7969 67.9225 53.1962 68.5232 52.4531 68.5232ZM51.1094 65.8357V64.4839H48.4192V65.8357H51.1094ZM67.229 77.9066H61.854H37.6638H30.9531H12.1379H6.771V79.253H67.229V77.9066ZM70.5884 2.6875C70.2188 2.6875 69.9165 2.9885 69.9165 3.35938V83.3125H71.2414L71.2603 3.35938C71.2603 2.9885 70.9579 2.6875 70.5884 2.6875Z" fill="#FDB914"/>
</svg>
