<svg width="92" height="86" viewBox="0 0 92 86" fill="none" xmlns="http://www.w3.org/2000/svg">
<path d="M1.48387 37.069H9.71588C10.2028 38.8234 10.9041 40.5112 11.806 42.093L5.97954 47.9128C5.70131 48.1908 5.54481 48.5679 5.54481 48.9617C5.54481 49.3556 5.70131 49.7327 5.97954 50.0107L12.2744 56.3025C12.854 56.8806 13.793 56.8806 14.3727 56.3025L20.1998 50.4792C21.7828 51.3799 23.4701 52.0813 25.2258 52.5673V60.7931C25.2258 61.6121 25.8901 62.2759 26.7097 62.2759H35.6129C36.4325 62.2759 37.0968 61.6121 37.0968 60.7931V52.5673C38.8525 52.0813 40.5398 51.3799 42.1228 50.4792L47.9499 56.3025C48.5388 56.8586 49.4599 56.8586 50.0482 56.3025L56.3442 50.0107C56.6224 49.7327 56.7789 49.3556 56.7789 48.9617C56.7789 48.5679 56.6224 48.1908 56.3442 47.9128L50.5165 42.093C51.4184 40.5112 52.1198 38.8234 52.6067 37.069H60.8387C61.6583 37.069 62.3226 36.4052 62.3226 35.5862V26.6897C62.3226 25.8712 61.6583 25.2069 60.8387 25.2069H52.6067C52.1198 23.4531 51.4184 21.7653 50.5165 20.1835L56.343 14.3636C56.6213 14.0856 56.7778 13.7086 56.7778 13.3147C56.7778 12.9209 56.6213 12.5438 56.343 12.2658L50.0482 5.9739C49.4685 5.39527 48.5295 5.39527 47.9499 5.9739L42.1228 11.7972C40.5398 10.8971 38.8519 10.1957 37.0968 9.70917V1.48276C37.0968 0.664345 36.4325 0 35.6129 0H26.7097C25.8901 0 25.2258 0.664345 25.2258 1.48276V9.70917C23.4707 10.1957 21.7828 10.8971 20.1998 11.7972L14.3727 5.9739C13.7838 5.41786 12.8627 5.41786 12.2744 5.9739L5.97838 12.2658C5.70015 12.5438 5.54365 12.9209 5.54365 13.3147C5.54365 13.7086 5.70015 14.0856 5.97838 14.3636L11.806 20.1835C10.9041 21.7653 10.2028 23.4531 9.71588 25.2069H1.48387C0.664264 25.2069 0 25.8712 0 26.6897V35.5862C0 36.4052 0.664264 37.069 1.48387 37.069ZM2.96774 28.1724H10.8769C11.5742 28.1724 12.1776 27.6876 12.3266 27.0071C12.8135 24.7864 13.6939 22.67 14.9262 20.7586C15.3024 20.1725 15.219 19.4027 14.7257 18.9098L9.12581 13.3141L13.3235 9.11897L18.9223 14.7146C19.4155 15.2087 20.1864 15.2921 20.7742 14.9156C22.6876 13.6848 24.805 12.805 27.0273 12.3179C27.7078 12.1685 28.1935 11.5655 28.1935 10.8687V2.96552H34.129V10.8687C34.129 11.5655 34.6148 12.1685 35.2953 12.3179C37.5176 12.805 39.635 13.6848 41.5484 14.9156C42.1361 15.2921 42.9071 15.2087 43.4003 14.7146L48.999 9.11897L53.1956 13.3141L47.5969 18.9081C47.1025 19.4016 47.0196 20.1719 47.3963 20.7586C48.6287 22.6711 49.508 24.787 49.9943 27.0082C50.1438 27.6888 50.7472 28.1742 51.444 28.1742H59.3548V34.1052H51.444C50.7472 34.1052 50.1438 34.59 49.9943 35.2705C49.508 37.4912 48.6281 39.607 47.3963 41.5172C47.0202 42.104 47.1036 42.8737 47.5969 43.3666L53.1968 48.9612L48.999 53.1575L43.4003 47.5612C42.9071 47.0677 42.1361 46.9843 41.5484 47.3608C39.6362 48.5922 37.5193 49.472 35.297 49.9585C34.6153 50.1068 34.129 50.7103 34.129 51.4071V59.3103H28.1935V51.4071C28.1935 50.7103 27.7072 50.1068 27.0256 49.9585C24.8032 49.472 22.6864 48.5922 20.7742 47.3608C20.1864 46.9843 19.4155 47.0677 18.9223 47.5612L13.3235 53.1575L9.12696 48.9623L14.7257 43.3678C15.2201 42.8749 15.303 42.1046 14.9262 41.5172C13.6939 39.6053 12.8135 37.4889 12.3266 35.2676C12.177 34.5871 11.5742 34.1034 10.8769 34.1034H2.96774V28.1724Z" fill="#FDB914"/>
<path d="M31.1613 43C37.7176 43 43.0323 37.6899 43.0323 31.1379C43.0323 24.5866 37.7176 19.2759 31.1613 19.2759C24.605 19.2759 19.2903 24.5866 19.2903 31.1379C19.2973 37.6858 24.6085 42.993 31.1613 43ZM31.1613 22.2414C36.0778 22.2414 40.0645 26.2251 40.0645 31.1379C40.0645 36.0513 36.0778 40.0345 31.1613 40.0345C26.2448 40.0345 22.2581 36.0513 22.2581 31.1379C22.2633 26.2263 26.246 22.2466 31.1613 22.2414Z" fill="#FDB914"/>
<path d="M31.1613 47.4483C40.1758 47.4483 47.4839 40.1463 47.4839 31.1379C47.4839 22.1302 40.1758 14.8276 31.1613 14.8276C22.1468 14.8276 14.8387 22.1302 14.8387 31.1379C14.8497 40.1416 22.1508 47.4379 31.1613 47.4483ZM31.1613 17.7931C38.5372 17.7931 44.5161 23.7676 44.5161 31.1379C44.5161 38.5083 38.5372 44.4828 31.1613 44.4828C23.7854 44.4828 17.8065 38.5083 17.8065 31.1379C17.8146 23.7716 23.7889 17.8012 31.1613 17.7931Z" fill="#FDB914"/>
<path d="M84.5806 68.2069V56.3448C84.5806 55.5264 83.9164 54.8621 83.0968 54.8621H80.129V43C80.129 42.1816 79.4648 41.5172 78.6452 41.5172H65.2903C64.4707 41.5172 63.8064 42.1816 63.8064 43V54.8621H56.3871C55.5675 54.8621 54.9032 55.5264 54.9032 56.3448V68.2069H7.41935C3.32364 68.2121 0.00521673 71.528 0 75.6207V78.5862C0.00521673 82.6794 3.32364 85.9954 7.41935 86H84.5806C88.6764 85.9954 91.9948 82.6794 92 78.5862V75.6207C91.9948 71.528 88.6764 68.2121 84.5806 68.2069ZM81.6129 68.2069H71.2258V57.8276H81.6129V68.2069ZM66.7742 44.4828H77.1613V54.8621H66.7742V44.4828ZM57.871 57.8276H68.2581V68.2069H57.871V57.8276ZM89.0323 78.5862C89.0323 81.0432 87.0389 83.0345 84.5806 83.0345H7.41935C4.96111 83.0345 2.96774 81.0432 2.96774 78.5862V75.6207C2.96774 73.1643 4.96111 71.1724 7.41935 71.1724H84.5806C87.0389 71.1724 89.0323 73.1643 89.0323 75.6207V78.5862Z" fill="#FDB914"/>
<path d="M46 72.6552C43.5418 72.6552 41.5484 74.6471 41.5484 77.1035C41.5484 79.5604 43.5418 81.5517 46 81.5517C48.4582 81.5517 50.4516 79.5604 50.4516 77.1035C50.4516 74.6471 48.4582 72.6552 46 72.6552ZM46 78.5862C45.1804 78.5862 44.5161 77.9224 44.5161 77.1035C44.5161 76.285 45.1804 75.6207 46 75.6207C46.8196 75.6207 47.4839 76.285 47.4839 77.1035C47.4839 77.9224 46.8196 78.5862 46 78.5862Z" fill="#FDB914"/>
<path d="M31.1613 72.6552C28.703 72.6552 26.7097 74.6471 26.7097 77.1035C26.7097 79.5604 28.703 81.5517 31.1613 81.5517C33.6195 81.5517 35.6129 79.5604 35.6129 77.1035C35.6129 74.6471 33.6195 72.6552 31.1613 72.6552ZM31.1613 78.5862C30.3417 78.5862 29.6774 77.9224 29.6774 77.1035C29.6774 76.285 30.3417 75.6207 31.1613 75.6207C31.9809 75.6207 32.6452 76.285 32.6452 77.1035C32.6452 77.9224 31.9809 78.5862 31.1613 78.5862Z" fill="#FDB914"/>
<path d="M60.8387 72.6552C58.3805 72.6552 56.3871 74.6471 56.3871 77.1035C56.3871 79.5604 58.3805 81.5517 60.8387 81.5517C63.297 81.5517 65.2903 79.5604 65.2903 77.1035C65.2903 74.6471 63.297 72.6552 60.8387 72.6552ZM60.8387 78.5862C60.0191 78.5862 59.3548 77.9224 59.3548 77.1035C59.3548 76.285 60.0191 75.6207 60.8387 75.6207C61.6583 75.6207 62.3226 76.285 62.3226 77.1035C62.3226 77.9224 61.6583 78.5862 60.8387 78.5862Z" fill="#FDB914"/>
<path d="M16.3226 72.6552C13.8643 72.6552 11.871 74.6471 11.871 77.1035C11.871 79.5604 13.8643 81.5517 16.3226 81.5517C18.7808 81.5517 20.7742 79.5604 20.7742 77.1035C20.7742 74.6471 18.7808 72.6552 16.3226 72.6552ZM16.3226 78.5862C15.503 78.5862 14.8387 77.9224 14.8387 77.1035C14.8387 76.285 15.503 75.6207 16.3226 75.6207C17.1422 75.6207 17.8065 76.285 17.8065 77.1035C17.8065 77.9224 17.1422 78.5862 16.3226 78.5862Z" fill="#FDB914"/>
<path d="M75.6774 72.6552C73.2192 72.6552 71.2258 74.6471 71.2258 77.1035C71.2258 79.5604 73.2192 81.5517 75.6774 81.5517C78.1357 81.5517 80.129 79.5604 80.129 77.1035C80.129 74.6471 78.1357 72.6552 75.6774 72.6552ZM75.6774 78.5862C74.8578 78.5862 74.1936 77.9224 74.1936 77.1035C74.1936 76.285 74.8578 75.6207 75.6774 75.6207C76.497 75.6207 77.1613 76.285 77.1613 77.1035C77.1613 77.9224 76.497 78.5862 75.6774 78.5862Z" fill="#FDB914"/>
</svg>
