<svg width="86" height="86" viewBox="0 0 86 86" fill="none" xmlns="http://www.w3.org/2000/svg">
<path d="M56.4375 56.4375C55.5104 56.4375 54.7578 57.1901 54.7578 58.1172C54.7578 59.0443 55.5104 59.7969 56.4375 59.7969C57.3646 59.7969 58.1172 59.0443 58.1172 58.1172C58.1172 57.1901 57.3646 56.4375 56.4375 56.4375Z" fill="#FDB914"/>
<path d="M20.1562 27.8828C21.084 27.8828 21.8359 27.1309 21.8359 26.2031V19.4844C21.8359 18.5566 21.084 17.8047 20.1562 17.8047C19.2285 17.8047 18.4766 18.5566 18.4766 19.4844V26.2031C18.4766 27.1309 19.2285 27.8828 20.1562 27.8828Z" fill="#FDB914"/>
<path d="M79.2812 39.6406V26.2031C79.2812 21.5722 75.5138 17.8047 70.8828 17.8047H61.4766V5.03906C61.4766 2.26036 59.2162 0 56.4375 0H25.1953C22.4166 0 20.1562 2.26036 20.1562 5.03906V11.0859H15.1172C12.3385 11.0859 10.0781 13.3463 10.0781 16.125V17.8047H8.39844C3.76749 17.8047 0 21.5722 0 26.2031V77.6016C0 82.2325 3.76749 86 8.39844 86H59.7969C63.8524 86 67.2459 83.1104 68.026 79.2812H70.8828C75.5138 79.2812 79.2812 75.5138 79.2812 70.8828V66.5156H80.9609C83.7396 66.5156 86 64.2553 86 61.4766V46.3594C86 42.6549 82.9857 39.6406 79.2812 39.6406ZM82.6406 46.3594C82.6406 48.2149 81.1368 49.7188 79.2812 49.7188V43C81.1335 43 82.6406 44.5071 82.6406 46.3594ZM70.8828 21.1641C73.6615 21.1641 75.9219 23.4244 75.9219 26.2031V49.7188H68.1953V39.6406C68.1953 35.5851 65.3057 32.1916 61.4766 31.4115V21.1641H70.8828ZM23.5156 5.03906C23.5156 4.11261 24.2689 3.35938 25.1953 3.35938H56.4375C57.364 3.35938 58.1172 4.11261 58.1172 5.03906V31.2422H50.3906V16.125C50.3906 13.3463 48.1303 11.0859 45.3516 11.0859H23.5156V5.03906ZM40.3125 31.2422V14.4453H45.3516C46.278 14.4453 47.0312 15.1985 47.0312 16.125V31.2422H40.3125ZM30.2344 31.2422V14.4453H36.9531V31.2422H30.2344ZM13.4375 16.125C13.4375 15.1985 14.1907 14.4453 15.1172 14.4453H26.875V31.2422H13.4375V16.125ZM8.39844 21.1641H10.0781V31.2422H8.758C5.98192 31.2422 3.35938 29.2318 3.35938 26.2031C3.35938 23.4244 5.61974 21.1641 8.39844 21.1641ZM59.7969 82.6406H8.39844C5.61974 82.6406 3.35938 80.3803 3.35938 77.6016V32.8182C4.86125 33.9369 6.74762 34.6016 8.758 34.6016H59.7969C62.5756 34.6016 64.8359 36.8619 64.8359 39.6406V49.7188H53.0781C50.2994 49.7188 48.0391 51.9791 48.0391 54.7578V61.4766C48.0391 64.2553 50.2994 66.5156 53.0781 66.5156H64.8359V77.6016C64.8359 80.3803 62.5756 82.6406 59.7969 82.6406ZM75.9219 70.8828C75.9219 73.6615 73.6615 75.9219 70.8828 75.9219H68.1953V66.5156H75.9219V70.8828ZM80.9609 63.1562H53.0781C52.1517 63.1562 51.3984 62.403 51.3984 61.4766V54.7578C51.3984 53.8314 52.1517 53.0781 53.0781 53.0781H79.2812C80.48 53.0781 81.6302 52.7645 82.6406 52.1786V61.4766C82.6406 62.403 81.8874 63.1562 80.9609 63.1562Z" fill="#FDB914"/>
<path d="M70.8828 56.4375H63.1562C62.2285 56.4375 61.4766 57.1894 61.4766 58.1172C61.4766 59.045 62.2285 59.7969 63.1562 59.7969H70.8828C71.8106 59.7969 72.5625 59.045 72.5625 58.1172C72.5625 57.1894 71.8106 56.4375 70.8828 56.4375Z" fill="#FDB914"/>
</svg>
